M48
; DRILL file {KiCad 9.0.7} date 2026-03-07T21:35:13-0500
; FORMAT={-:-/ absolute / metric / decimal}
; #@! TF.CreationDate,2026-03-07T21:35:13-05:00
; #@! TF.GenerationSoftware,Kicad,Pcbnew,9.0.7
; #@! TF.FileFunction,Plated,1,2,PTH
FMAT,2
METRIC
; #@! TA.AperFunction,Plated,PTH,ViaDrill
T1C0.300
; #@! TA.AperFunction,Plated,PTH,ComponentDrill
T2C0.838
; #@! TA.AperFunction,Plated,PTH,ComponentDrill
T3C0.950
; #@! TA.AperFunction,Plated,PTH,ComponentDrill
T4C1.000
; #@! TA.AperFunction,Plated,PTH,ComponentDrill
T5C1.100
%
G90
G05
T1
X13.075Y-51.65
X13.087Y-55.35
X13.087Y-59.05
X13.087Y-62.8
X13.112Y-49.95
X13.125Y-53.65
X13.125Y-57.35
X13.125Y-61.1
X13.5Y-14.5
X13.5Y-20.5
X13.5Y-26.5
X13.5Y-28.5
X13.5Y-34.5
X13.5Y-36.5
X13.5Y-38.5
X13.5Y-40.5
X13.5Y-42.5
X13.5Y-44.5
X13.5Y-46.5
X13.5Y-48.5
X13.5Y-64.5
X13.5Y-70.5
X13.5Y-72.5
X14.85Y-23.862
X15.5Y-20.5
X15.5Y-26.5
X15.5Y-28.5
X15.5Y-64.5
X15.5Y-70.5
X15.5Y-74.5
X15.75Y-52.4
X15.9Y-48.6
X16.25Y-17.3
X16.25Y-18.55
X16.65Y-63.75
X17.5Y-20.5
X17.5Y-26.5
X17.5Y-28.5
X17.5Y-68.5
X17.5Y-70.5
X17.5Y-74.5
X18.5Y-22.087
X18.75Y-17.95
X18.75Y-18.7
X19.2Y-55.2
X19.3Y-20.7
X19.4Y-14.4
X19.5Y-17.95
X19.5Y-18.7
X19.5Y-34.5
X19.5Y-42.5
X19.5Y-46.5
X19.5Y-48.5
X19.5Y-60.5
X19.5Y-68.5
X19.5Y-70.5
X19.5Y-74.5
X19.75Y-44.85
X19.9Y-63.512
X20.05Y-55.962
X20.25Y-17.95
X20.25Y-18.7
X20.45Y-49.65
X21.15Y-14.75
X21.5Y-26.5
X21.5Y-34.5
X21.5Y-40.5
X21.5Y-48.5
X21.5Y-62.5
X21.5Y-68.5
X21.5Y-70.5
X21.5Y-72.5
X21.5Y-74.5
X22.3Y-18.05
X22.8Y-69.825
X23.113Y-42.462
X23.3Y-19.25
X23.5Y-34.5
X23.5Y-68.5
X23.8Y-48.5
X23.8Y-55.1
X24.317Y-66.211
X24.35Y-38.068
X24.4Y-59.25
X24.65Y-33.75
X24.65Y-52.975
X24.8Y-24.7
X24.85Y-30.6
X25.1Y-56.587
X25.2Y-63.6
X25.3Y-43.65
X25.5Y-17.0
X25.5Y-22.5
X25.5Y-36.5
X25.5Y-60.5
X25.5Y-62.5
X25.5Y-66.5
X25.5Y-70.5
X25.5Y-72.5
X25.5Y-74.5
X26.15Y-47.5
X26.5Y-34.7
X26.8Y-45.75
X26.8Y-46.55
X27.025Y-43.925
X27.1Y-44.75
X27.15Y-53.45
X27.25Y-47.35
X27.5Y-14.5
X27.5Y-22.5
X27.5Y-30.5
X27.75Y-48.1
X27.8Y-42.65
X28.05Y-36.05
X28.55Y-18.2
X28.55Y-48.35
X28.75Y-71.95
X28.85Y-44.6
X28.85Y-45.6
X28.85Y-46.6
X29.5Y-14.5
X29.5Y-28.5
X29.5Y-30.5
X29.5Y-32.5
X29.5Y-68.5
X29.5Y-74.5
X29.8Y-44.6
X29.8Y-45.6
X29.8Y-46.6
X30.3Y-69.7
X30.7Y-41.15
X30.75Y-48.3
X30.75Y-50.15
X30.75Y-51.85
X30.75Y-53.55
X30.75Y-55.25
X30.75Y-56.95
X30.85Y-60.15
X31.0Y-18.2
X31.274Y-43.774
X31.274Y-47.425
X31.5Y-14.5
X31.5Y-28.5
X31.5Y-30.5
X31.5Y-36.5
X31.5Y-42.5
X31.5Y-59.1
X31.5Y-74.5
X31.675Y-49.3
X31.688Y-51.0
X31.688Y-52.7
X31.688Y-54.4
X31.688Y-56.1
X31.688Y-57.8
X32.85Y-64.25
X33.5Y-14.5
X33.5Y-20.5
X33.5Y-28.5
X33.5Y-34.5
X33.5Y-36.5
X33.5Y-74.5
X35.5Y-16.5
X35.5Y-28.5
X35.5Y-32.5
X35.5Y-34.5
X35.5Y-40.5
X35.5Y-42.15
X35.5Y-50.5
X35.5Y-52.5
X35.5Y-74.5
X35.55Y-57.8
X37.5Y-26.5
X37.5Y-28.5
X37.5Y-32.5
X37.5Y-38.5
X37.5Y-52.5
X37.5Y-70.5
X37.5Y-74.5
X38.15Y-21.4
X39.5Y-26.5
X39.5Y-28.5
X39.5Y-32.5
X39.5Y-38.5
X39.5Y-44.5
X39.5Y-46.5
X39.5Y-52.5
X39.5Y-54.5
X39.5Y-56.5
X39.5Y-70.5
X39.5Y-74.5
X39.725Y-24.35
X40.15Y-41.472
X40.15Y-49.727
X41.5Y-22.5
X41.5Y-38.5
X41.5Y-44.5
X41.5Y-46.5
X41.5Y-52.5
X41.5Y-54.5
X41.5Y-56.5
X41.5Y-74.5
X42.504Y-21.25
X43.5Y-14.5
X43.5Y-22.5
X43.5Y-30.5
X43.5Y-34.5
X43.5Y-36.5
X43.5Y-38.5
X43.5Y-40.5
X43.5Y-42.5
X43.5Y-44.5
X43.5Y-46.5
X43.5Y-48.5
X43.5Y-50.5
X43.5Y-52.5
X43.5Y-64.5
X43.5Y-68.5
X43.5Y-74.5
X45.5Y-16.5
X45.5Y-18.5
X45.5Y-20.5
X45.5Y-22.5
X45.5Y-24.5
X45.5Y-26.5
X45.5Y-28.5
X45.5Y-30.5
X45.5Y-36.5
X45.5Y-38.5
X45.5Y-40.5
X45.5Y-42.5
X45.5Y-44.5
X45.5Y-46.5
X45.5Y-48.5
X45.5Y-50.5
X45.5Y-52.5
X45.5Y-54.5
X45.5Y-56.5
X45.5Y-64.5
X45.5Y-66.5
X45.5Y-68.5
X45.5Y-70.5
X45.5Y-72.5
X45.5Y-74.5
T2
X46.254Y-15.1
X46.254Y-21.4
T3
X15.7Y-33.2
X15.7Y-35.7
X15.7Y-38.2
X15.7Y-40.7
X15.7Y-43.2
X15.7Y-45.7
T4
X15.85Y-72.3
X18.35Y-72.3
X21.71Y-29.335
X21.71Y-31.875
X24.25Y-29.335
X24.25Y-31.875
X26.79Y-29.335
X26.79Y-31.875
T5
X43.167Y-55.15
X43.167Y-60.15
X43.167Y-66.85
X43.167Y-71.85
M30
