%TF.GenerationSoftware,KiCad,Pcbnew,9.0.7*%
%TF.CreationDate,2026-03-07T19:49:07-05:00*%
%TF.ProjectId,Battery_Charger_Balancer_2,42617474-6572-4795-9f43-686172676572,rev?*%
%TF.SameCoordinates,Original*%
%TF.FileFunction,Soldermask,Top*%
%TF.FilePolarity,Negative*%
%FSLAX46Y46*%
G04 Gerber Fmt 4.6, Leading zero omitted, Abs format (unit mm)*
G04 Created by KiCad (PCBNEW 9.0.7) date 2026-03-07 19:49:07*
%MOMM*%
%LPD*%
G01*
G04 APERTURE LIST*
G04 Aperture macros list*
%AMRoundRect*
0 Rectangle with rounded corners*
0 $1 Rounding radius*
0 $2 $3 $4 $5 $6 $7 $8 $9 X,Y pos of 4 corners*
0 Add a 4 corners polygon primitive as box body*
4,1,4,$2,$3,$4,$5,$6,$7,$8,$9,$2,$3,0*
0 Add four circle primitives for the rounded corners*
1,1,$1+$1,$2,$3*
1,1,$1+$1,$4,$5*
1,1,$1+$1,$6,$7*
1,1,$1+$1,$8,$9*
0 Add four rect primitives between the rounded corners*
20,1,$1+$1,$2,$3,$4,$5,0*
20,1,$1+$1,$4,$5,$6,$7,0*
20,1,$1+$1,$6,$7,$8,$9,0*
20,1,$1+$1,$8,$9,$2,$3,0*%
%AMFreePoly0*
4,1,7,0.375000,-0.340000,-0.375000,-0.340000,-0.375000,-0.010000,-0.025000,-0.010000,-0.025000,0.340000,0.375000,0.340000,0.375000,-0.340000,0.375000,-0.340000,$1*%
%AMFreePoly1*
4,1,7,0.375000,-0.375000,-0.025000,-0.375000,-0.025000,-0.025000,-0.375000,-0.025000,-0.375000,0.375000,0.375000,0.375000,0.375000,-0.375000,0.375000,-0.375000,$1*%
%AMFreePoly2*
4,1,7,0.375000,-0.025000,0.025000,-0.025000,0.025000,-0.375000,-0.375000,-0.375000,-0.375000,0.375000,0.375000,0.375000,0.375000,-0.025000,0.375000,-0.025000,$1*%
%AMFreePoly3*
4,1,7,0.025000,-0.010000,0.375000,-0.010000,0.375000,-0.340000,-0.375000,-0.340000,-0.375000,0.340000,0.025000,0.340000,0.025000,-0.010000,0.025000,-0.010000,$1*%
%AMFreePoly4*
4,1,11,0.162500,-0.144000,0.038000,-0.268500,0.037500,-0.268500,0.037500,-0.619500,-0.162500,-0.619500,-0.162500,-0.266500,-0.162000,-0.216000,-0.087500,-0.140500,-0.087500,0.620000,0.162500,0.620000,0.162500,-0.144000,0.162500,-0.144000,$1*%
%AMFreePoly5*
4,1,13,0.137500,-0.142000,0.137000,-0.142000,0.137000,-0.142500,0.063000,-0.268500,0.062500,-0.268500,0.062500,-0.619500,-0.137500,-0.619500,-0.137500,-0.267000,-0.137000,-0.216000,-0.112500,-0.141500,-0.112500,0.620000,0.137500,0.620000,0.137500,-0.142000,0.137500,-0.142000,$1*%
%AMFreePoly6*
4,1,9,0.125000,-0.142000,0.100000,-0.142000,0.100000,-0.619500,-0.100000,-0.619500,-0.100000,-0.142000,-0.125000,-0.142000,-0.125000,0.620000,0.125000,0.620000,0.125000,-0.142000,0.125000,-0.142000,$1*%
%AMFreePoly7*
4,1,13,0.112500,-0.141500,0.137000,-0.215500,0.137500,-0.266500,0.137500,-0.619500,-0.062500,-0.619500,-0.062500,-0.268500,-0.063000,-0.268500,-0.137000,-0.142500,-0.137000,-0.142000,-0.137500,-0.142000,-0.137500,0.620000,0.112500,0.620000,0.112500,-0.141500,0.112500,-0.141500,$1*%
%AMFreePoly8*
4,1,11,0.087500,-0.140000,0.162000,-0.215500,0.162500,-0.266500,0.162500,-0.619500,-0.037500,-0.619500,-0.037500,-0.268500,-0.038000,-0.268500,-0.162500,-0.144000,-0.162500,0.620000,0.087500,0.620000,0.087500,-0.140000,0.087500,-0.140000,$1*%
G04 Aperture macros list end*
%ADD10C,0.010000*%
%ADD11RoundRect,0.237500X0.237500X-0.287500X0.237500X0.287500X-0.237500X0.287500X-0.237500X-0.287500X0*%
%ADD12RoundRect,0.237500X-0.287500X-0.237500X0.287500X-0.237500X0.287500X0.237500X-0.287500X0.237500X0*%
%ADD13RoundRect,0.237500X-0.300000X-0.237500X0.300000X-0.237500X0.300000X0.237500X-0.300000X0.237500X0*%
%ADD14RoundRect,0.237500X0.250000X0.237500X-0.250000X0.237500X-0.250000X-0.237500X0.250000X-0.237500X0*%
%ADD15RoundRect,0.250000X0.350000X-0.275000X0.350000X0.275000X-0.350000X0.275000X-0.350000X-0.275000X0*%
%ADD16RoundRect,0.237500X-0.237500X0.300000X-0.237500X-0.300000X0.237500X-0.300000X0.237500X0.300000X0*%
%ADD17RoundRect,0.062500X-0.325000X-0.062500X0.325000X-0.062500X0.325000X0.062500X-0.325000X0.062500X0*%
%ADD18R,0.600000X1.200000*%
%ADD19RoundRect,0.237500X0.300000X0.237500X-0.300000X0.237500X-0.300000X-0.237500X0.300000X-0.237500X0*%
%ADD20RoundRect,0.250001X0.799999X-0.799999X0.799999X0.799999X-0.799999X0.799999X-0.799999X-0.799999X0*%
%ADD21C,2.100000*%
%ADD22RoundRect,0.237500X0.237500X-0.300000X0.237500X0.300000X-0.237500X0.300000X-0.237500X-0.300000X0*%
%ADD23RoundRect,0.237500X0.287500X0.237500X-0.287500X0.237500X-0.287500X-0.237500X0.287500X-0.237500X0*%
%ADD24RoundRect,0.237500X-0.237500X0.250000X-0.237500X-0.250000X0.237500X-0.250000X0.237500X0.250000X0*%
%ADD25RoundRect,0.237500X-0.250000X-0.237500X0.250000X-0.237500X0.250000X0.237500X-0.250000X0.237500X0*%
%ADD26RoundRect,0.237500X0.237500X-0.250000X0.237500X0.250000X-0.237500X0.250000X-0.237500X-0.250000X0*%
%ADD27C,0.700000*%
%ADD28RoundRect,0.102000X0.750000X0.750000X-0.750000X0.750000X-0.750000X-0.750000X0.750000X-0.750000X0*%
%ADD29RoundRect,0.250000X0.275000X0.350000X-0.275000X0.350000X-0.275000X-0.350000X0.275000X-0.350000X0*%
%ADD30R,1.700000X1.700000*%
%ADD31C,1.700000*%
%ADD32C,1.200000*%
%ADD33RoundRect,0.250000X-0.600000X-0.750000X0.600000X-0.750000X0.600000X0.750000X-0.600000X0.750000X0*%
%ADD34O,1.700000X2.000000*%
%ADD35R,3.302000X3.149600*%
%ADD36RoundRect,0.062500X-0.062500X0.375000X-0.062500X-0.375000X0.062500X-0.375000X0.062500X0.375000X0*%
%ADD37RoundRect,0.062500X-0.375000X0.062500X-0.375000X-0.062500X0.375000X-0.062500X0.375000X0.062500X0*%
%ADD38R,2.000000X2.000000*%
%ADD39RoundRect,0.150000X0.150000X-0.825000X0.150000X0.825000X-0.150000X0.825000X-0.150000X-0.825000X0*%
%ADD40R,2.489200X0.990600*%
%ADD41C,1.346200*%
%ADD42RoundRect,0.150000X-0.825000X-0.150000X0.825000X-0.150000X0.825000X0.150000X-0.825000X0.150000X0*%
%ADD43RoundRect,0.062500X0.062500X-0.325000X0.062500X0.325000X-0.062500X0.325000X-0.062500X-0.325000X0*%
%ADD44R,1.200000X0.600000*%
%ADD45RoundRect,0.250000X-0.725000X0.600000X-0.725000X-0.600000X0.725000X-0.600000X0.725000X0.600000X0*%
%ADD46O,1.950000X1.700000*%
%ADD47FreePoly0,270.000000*%
%ADD48R,0.250000X0.625000*%
%ADD49FreePoly1,270.000000*%
%ADD50R,0.625000X0.250000*%
%ADD51FreePoly2,270.000000*%
%ADD52FreePoly3,270.000000*%
%ADD53FreePoly4,270.000000*%
%ADD54FreePoly5,270.000000*%
%ADD55FreePoly6,270.000000*%
%ADD56FreePoly7,270.000000*%
%ADD57FreePoly8,270.000000*%
%ADD58R,0.652000X1.770000*%
G04 APERTURE END LIST*
D10*
%TO.C,J1*%
X27200000Y-20005000D02*
X26500000Y-20005000D01*
X26500000Y-18755000D01*
X27200000Y-18755000D01*
X27200000Y-20005000D01*
G36*
X27200000Y-20005000D02*
G01*
X26500000Y-20005000D01*
X26500000Y-18755000D01*
X27200000Y-18755000D01*
X27200000Y-20005000D01*
G37*
X28000000Y-20005000D02*
X27300000Y-20005000D01*
X27300000Y-18755000D01*
X28000000Y-18755000D01*
X28000000Y-20005000D01*
G36*
X28000000Y-20005000D02*
G01*
X27300000Y-20005000D01*
X27300000Y-18755000D01*
X28000000Y-18755000D01*
X28000000Y-20005000D01*
G37*
X28500000Y-20005000D02*
X28100000Y-20005000D01*
X28100000Y-18755000D01*
X28500000Y-18755000D01*
X28500000Y-20005000D01*
G36*
X28500000Y-20005000D02*
G01*
X28100000Y-20005000D01*
X28100000Y-18755000D01*
X28500000Y-18755000D01*
X28500000Y-20005000D01*
G37*
X29000000Y-20005000D02*
X28600000Y-20005000D01*
X28600000Y-18755000D01*
X29000000Y-18755000D01*
X29000000Y-20005000D01*
G36*
X29000000Y-20005000D02*
G01*
X28600000Y-20005000D01*
X28600000Y-18755000D01*
X29000000Y-18755000D01*
X29000000Y-20005000D01*
G37*
X29500000Y-20005000D02*
X29100000Y-20005000D01*
X29100000Y-18755000D01*
X29500000Y-18755000D01*
X29500000Y-20005000D01*
G36*
X29500000Y-20005000D02*
G01*
X29100000Y-20005000D01*
X29100000Y-18755000D01*
X29500000Y-18755000D01*
X29500000Y-20005000D01*
G37*
X30000000Y-20005000D02*
X29600000Y-20005000D01*
X29600000Y-18755000D01*
X30000000Y-18755000D01*
X30000000Y-20005000D01*
G36*
X30000000Y-20005000D02*
G01*
X29600000Y-20005000D01*
X29600000Y-18755000D01*
X30000000Y-18755000D01*
X30000000Y-20005000D01*
G37*
X30500000Y-20005000D02*
X30100000Y-20005000D01*
X30100000Y-18755000D01*
X30500000Y-18755000D01*
X30500000Y-20005000D01*
G36*
X30500000Y-20005000D02*
G01*
X30100000Y-20005000D01*
X30100000Y-18755000D01*
X30500000Y-18755000D01*
X30500000Y-20005000D01*
G37*
X31000000Y-20005000D02*
X30600000Y-20005000D01*
X30600000Y-18755000D01*
X31000000Y-18755000D01*
X31000000Y-20005000D01*
G36*
X31000000Y-20005000D02*
G01*
X30600000Y-20005000D01*
X30600000Y-18755000D01*
X31000000Y-18755000D01*
X31000000Y-20005000D01*
G37*
X31500000Y-20005000D02*
X31100000Y-20005000D01*
X31100000Y-18755000D01*
X31500000Y-18755000D01*
X31500000Y-20005000D01*
G36*
X31500000Y-20005000D02*
G01*
X31100000Y-20005000D01*
X31100000Y-18755000D01*
X31500000Y-18755000D01*
X31500000Y-20005000D01*
G37*
X32000000Y-20005000D02*
X31600000Y-20005000D01*
X31600000Y-18755000D01*
X32000000Y-18755000D01*
X32000000Y-20005000D01*
G36*
X32000000Y-20005000D02*
G01*
X31600000Y-20005000D01*
X31600000Y-18755000D01*
X32000000Y-18755000D01*
X32000000Y-20005000D01*
G37*
X32800000Y-20005000D02*
X32100000Y-20005000D01*
X32100000Y-18755000D01*
X32800000Y-18755000D01*
X32800000Y-20005000D01*
G36*
X32800000Y-20005000D02*
G01*
X32100000Y-20005000D01*
X32100000Y-18755000D01*
X32800000Y-18755000D01*
X32800000Y-20005000D01*
G37*
X33600000Y-20005000D02*
X32900000Y-20005000D01*
X32900000Y-18755000D01*
X33600000Y-18755000D01*
X33600000Y-20005000D01*
G36*
X33600000Y-20005000D02*
G01*
X32900000Y-20005000D01*
X32900000Y-18755000D01*
X33600000Y-18755000D01*
X33600000Y-20005000D01*
G37*
%TD*%
D11*
%TO.C,D2*%
X28050000Y-41475000D03*
X28050000Y-39725000D03*
%TD*%
D12*
%TO.C,D5*%
X13125000Y-57350000D03*
X14875000Y-57350000D03*
%TD*%
D13*
%TO.C,C7*%
X41887500Y-24350000D03*
X43612500Y-24350000D03*
%TD*%
D14*
%TO.C,R33*%
X23712500Y-35550000D03*
X21887500Y-35550000D03*
%TD*%
D15*
%TO.C,L3*%
X18600000Y-51912500D03*
X18600000Y-49612500D03*
%TD*%
D16*
%TO.C,C1*%
X18500000Y-22087500D03*
X18500000Y-23812500D03*
%TD*%
D17*
%TO.C,U10*%
X21625000Y-64387500D03*
X21625000Y-64887500D03*
X21625000Y-65387500D03*
X21625000Y-65887500D03*
X23550000Y-65887500D03*
X23550000Y-65387500D03*
X23550000Y-64887500D03*
X23550000Y-64387500D03*
D18*
X22587500Y-65137500D03*
%TD*%
D19*
%TO.C,C18*%
X33412500Y-54400000D03*
X31687500Y-54400000D03*
%TD*%
D20*
%TO.C,J6*%
X43167500Y-60150000D03*
D21*
X43167500Y-55150000D03*
%TD*%
D22*
%TO.C,C10*%
X36300000Y-31462500D03*
X36300000Y-29737500D03*
%TD*%
D23*
%TO.C,FB1*%
X39725000Y-24350000D03*
X37975000Y-24350000D03*
%TD*%
D15*
%TO.C,L4*%
X18300000Y-58237500D03*
X18300000Y-55937500D03*
%TD*%
D24*
%TO.C,R31*%
X28050000Y-36087500D03*
X28050000Y-37912500D03*
%TD*%
D19*
%TO.C,C17*%
X33412500Y-56100000D03*
X31687500Y-56100000D03*
%TD*%
D22*
%TO.C,C23*%
X27950000Y-71100000D03*
X27950000Y-69375000D03*
%TD*%
D25*
%TO.C,R10*%
X13137500Y-16800000D03*
X14962500Y-16800000D03*
%TD*%
D24*
%TO.C,R11*%
X41900000Y-29687500D03*
X41900000Y-31512500D03*
%TD*%
%TO.C,R28*%
X22800000Y-73637500D03*
X22800000Y-75462500D03*
%TD*%
D22*
%TO.C,C12*%
X34450000Y-33212500D03*
X34450000Y-31487500D03*
%TD*%
D16*
%TO.C,C5*%
X16700000Y-22087500D03*
X16700000Y-23812500D03*
%TD*%
D19*
%TO.C,C35*%
X23112500Y-42462500D03*
X21387500Y-42462500D03*
%TD*%
D26*
%TO.C,R6*%
X20350000Y-23862500D03*
X20350000Y-22037500D03*
%TD*%
D16*
%TO.C,C4*%
X26450000Y-24750000D03*
X26450000Y-26475000D03*
%TD*%
D22*
%TO.C,C36*%
X25150000Y-58312500D03*
X25150000Y-56587500D03*
%TD*%
%TO.C,C41*%
X20100000Y-57687500D03*
X20100000Y-55962500D03*
%TD*%
D20*
%TO.C,J3*%
X43167500Y-71850000D03*
D21*
X43167500Y-66850000D03*
%TD*%
D14*
%TO.C,R16*%
X33062500Y-71050000D03*
X31237500Y-71050000D03*
%TD*%
D24*
%TO.C,R2*%
X24800000Y-24700000D03*
X24800000Y-26525000D03*
%TD*%
D25*
%TO.C,R38*%
X13087500Y-59050000D03*
X14912500Y-59050000D03*
%TD*%
D22*
%TO.C,C42*%
X19937500Y-65237500D03*
X19937500Y-63512500D03*
%TD*%
%TO.C,C30*%
X19900000Y-40775000D03*
X19900000Y-39050000D03*
%TD*%
D13*
%TO.C,C8*%
X41887500Y-26050000D03*
X43612500Y-26050000D03*
%TD*%
D14*
%TO.C,R12*%
X40000000Y-29700000D03*
X38175000Y-29700000D03*
%TD*%
D26*
%TO.C,R1*%
X23150000Y-26525000D03*
X23150000Y-24700000D03*
%TD*%
%TO.C,R15*%
X34900000Y-72862500D03*
X34900000Y-71037500D03*
%TD*%
D22*
%TO.C,C33*%
X25450000Y-52125000D03*
X25450000Y-50400000D03*
%TD*%
D19*
%TO.C,C20*%
X33412500Y-51000000D03*
X31687500Y-51000000D03*
%TD*%
D27*
%TO.C,J1*%
X32940000Y-18305000D03*
X27160000Y-18305000D03*
D28*
X35170000Y-18805000D03*
X24930000Y-18805000D03*
X35170000Y-14875000D03*
X24930000Y-14875000D03*
%TD*%
D19*
%TO.C,C6*%
X14912500Y-19150000D03*
X13187500Y-19150000D03*
%TD*%
D22*
%TO.C,C27*%
X30700000Y-41150000D03*
X30700000Y-39425000D03*
%TD*%
D29*
%TO.C,L2*%
X23650000Y-44312500D03*
X21350000Y-44312500D03*
%TD*%
D30*
%TO.C,J4*%
X21710000Y-31875000D03*
D31*
X21710000Y-29335000D03*
X24250000Y-31875000D03*
X24250000Y-29335000D03*
X26790000Y-31875000D03*
X26790000Y-29335000D03*
%TD*%
D12*
%TO.C,D4*%
X13125000Y-53650000D03*
X14875000Y-53650000D03*
%TD*%
D32*
%TO.C,J5*%
X14250000Y-74300000D03*
D33*
X15850000Y-72300000D03*
D34*
X18350000Y-72300000D03*
%TD*%
D19*
%TO.C,C16*%
X33412500Y-57800000D03*
X31687500Y-57800000D03*
%TD*%
D26*
%TO.C,R35*%
X27150000Y-52175000D03*
X27150000Y-50350000D03*
%TD*%
D12*
%TO.C,D6*%
X13125000Y-61100000D03*
X14875000Y-61100000D03*
%TD*%
D16*
%TO.C,C14*%
X39650000Y-35237500D03*
X39650000Y-36962500D03*
%TD*%
D35*
%TO.C,L1*%
X40150000Y-49727500D03*
X40150000Y-41472500D03*
%TD*%
D13*
%TO.C,C34*%
X22050000Y-54012500D03*
X23775000Y-54012500D03*
%TD*%
D22*
%TO.C,C31*%
X25650000Y-40725000D03*
X25650000Y-39000000D03*
%TD*%
D26*
%TO.C,R39*%
X26987500Y-65387500D03*
X26987500Y-63562500D03*
%TD*%
D36*
%TO.C,U1*%
X20500000Y-16262500D03*
X20000000Y-16262500D03*
X19500000Y-16262500D03*
X19000000Y-16262500D03*
X18500000Y-16262500D03*
D37*
X17812500Y-16950000D03*
X17812500Y-17450000D03*
X17812500Y-17950000D03*
X17812500Y-18450000D03*
X17812500Y-18950000D03*
D36*
X18500000Y-19637500D03*
X19000000Y-19637500D03*
X19500000Y-19637500D03*
X20000000Y-19637500D03*
X20500000Y-19637500D03*
D37*
X21187500Y-18950000D03*
X21187500Y-18450000D03*
X21187500Y-17950000D03*
X21187500Y-17450000D03*
X21187500Y-16950000D03*
D38*
X19500000Y-17950000D03*
%TD*%
D39*
%TO.C,U4*%
X31095000Y-67375000D03*
X32365000Y-67375000D03*
X33635000Y-67375000D03*
X34905000Y-67375000D03*
X34905000Y-62425000D03*
X33635000Y-62425000D03*
X32365000Y-62425000D03*
X31095000Y-62425000D03*
%TD*%
D12*
%TO.C,D1*%
X16725000Y-27600000D03*
X18475000Y-27600000D03*
%TD*%
%TO.C,D3*%
X13112500Y-49950000D03*
X14862500Y-49950000D03*
%TD*%
D16*
%TO.C,C15*%
X37950000Y-35237500D03*
X37950000Y-36962500D03*
%TD*%
D17*
%TO.C,U7*%
X21987500Y-50912500D03*
X21987500Y-51412500D03*
X21987500Y-51912500D03*
X21987500Y-52412500D03*
X23912500Y-52412500D03*
X23912500Y-51912500D03*
X23912500Y-51412500D03*
X23912500Y-50912500D03*
D18*
X22950000Y-51662500D03*
%TD*%
D25*
%TO.C,R40*%
X13087500Y-62800000D03*
X14912500Y-62800000D03*
%TD*%
%TO.C,R34*%
X13075000Y-51650000D03*
X14900000Y-51650000D03*
%TD*%
D26*
%TO.C,R37*%
X26850000Y-58375000D03*
X26850000Y-56550000D03*
%TD*%
D24*
%TO.C,R27*%
X22800000Y-69825000D03*
X22800000Y-71650000D03*
%TD*%
D19*
%TO.C,C32*%
X23662500Y-37262500D03*
X21937500Y-37262500D03*
%TD*%
D25*
%TO.C,R9*%
X14637500Y-14850000D03*
X16462500Y-14850000D03*
%TD*%
D16*
%TO.C,C13*%
X41350000Y-35250000D03*
X41350000Y-36975000D03*
%TD*%
D40*
%TO.C,SW1*%
X42504287Y-21249999D03*
X42504287Y-19250001D03*
X42504287Y-17249999D03*
D41*
X46254287Y-21399999D03*
X46254287Y-15100001D03*
%TD*%
D26*
%TO.C,R7*%
X14850000Y-23862500D03*
X14850000Y-22037500D03*
%TD*%
D13*
%TO.C,C37*%
X21737500Y-60287500D03*
X23462500Y-60287500D03*
%TD*%
D42*
%TO.C,U2*%
X30525000Y-22445000D03*
X30525000Y-23715000D03*
X30525000Y-24985000D03*
X30525000Y-26255000D03*
X35475000Y-26255000D03*
X35475000Y-24985000D03*
X35475000Y-23715000D03*
X35475000Y-22445000D03*
%TD*%
D13*
%TO.C,C11*%
X32687500Y-29750000D03*
X34412500Y-29750000D03*
%TD*%
D19*
%TO.C,C19*%
X33412500Y-52700000D03*
X31687500Y-52700000D03*
%TD*%
D14*
%TO.C,R17*%
X25550000Y-46200000D03*
X23725000Y-46200000D03*
%TD*%
D16*
%TO.C,C24*%
X29550000Y-71087500D03*
X29550000Y-72812500D03*
%TD*%
D14*
%TO.C,R8*%
X16462500Y-13250000D03*
X14637500Y-13250000D03*
%TD*%
D17*
%TO.C,U9*%
X21687500Y-57337500D03*
X21687500Y-57837500D03*
X21687500Y-58337500D03*
X21687500Y-58837500D03*
X23612500Y-58837500D03*
X23612500Y-58337500D03*
X23612500Y-57837500D03*
X23612500Y-57337500D03*
D18*
X22650000Y-58087500D03*
%TD*%
D25*
%TO.C,R36*%
X13087500Y-55350000D03*
X14912500Y-55350000D03*
%TD*%
D13*
%TO.C,C40*%
X21700000Y-67337500D03*
X23425000Y-67337500D03*
%TD*%
D19*
%TO.C,C21*%
X33400000Y-49300000D03*
X31675000Y-49300000D03*
%TD*%
D14*
%TO.C,R13*%
X40000000Y-31550000D03*
X38175000Y-31550000D03*
%TD*%
D43*
%TO.C,U3*%
X22650000Y-40812500D03*
X23150000Y-40812500D03*
X23650000Y-40812500D03*
X24150000Y-40812500D03*
X24150000Y-38887500D03*
X23650000Y-38887500D03*
X23150000Y-38887500D03*
X22650000Y-38887500D03*
D44*
X23400000Y-39850000D03*
%TD*%
D16*
%TO.C,C22*%
X27950000Y-72800000D03*
X27950000Y-74525000D03*
%TD*%
D22*
%TO.C,C38*%
X20450000Y-51375000D03*
X20450000Y-49650000D03*
%TD*%
D14*
%TO.C,R14*%
X33112500Y-72850000D03*
X31287500Y-72850000D03*
%TD*%
D15*
%TO.C,L5*%
X18037500Y-65825000D03*
X18037500Y-63525000D03*
%TD*%
D32*
%TO.C,J2*%
X13700000Y-31600000D03*
D45*
X15700000Y-33200000D03*
D46*
X15700000Y-35700000D03*
X15700000Y-38200000D03*
X15700000Y-40700000D03*
X15700000Y-43200000D03*
X15700000Y-45700000D03*
%TD*%
D13*
%TO.C,C9*%
X41887500Y-27750000D03*
X43612500Y-27750000D03*
%TD*%
D47*
%TO.C,U5*%
X31274000Y-43774500D03*
D48*
X30609000Y-43712000D03*
X30159000Y-43712000D03*
X29709000Y-43712000D03*
X29259000Y-43712000D03*
X28809000Y-43712000D03*
D49*
X28089000Y-43774000D03*
D50*
X28026000Y-44475000D03*
X28026000Y-44925000D03*
X28026000Y-45375000D03*
X28026000Y-45825000D03*
X28026000Y-46275000D03*
X28026000Y-46725000D03*
D51*
X28089000Y-47425500D03*
D48*
X28809000Y-47488000D03*
X29259000Y-47488000D03*
X29709000Y-47488000D03*
X30159000Y-47488000D03*
X30609000Y-47488000D03*
D52*
X31274000Y-47425500D03*
D53*
X30993500Y-46463000D03*
D54*
X30993500Y-46038000D03*
D55*
X30993500Y-45600000D03*
D56*
X30993500Y-45162500D03*
D57*
X30993500Y-44737500D03*
D58*
X29265000Y-45600000D03*
%TD*%
D22*
%TO.C,C39*%
X25187500Y-65337500D03*
X25187500Y-63612500D03*
%TD*%
M02*
