%TF.GenerationSoftware,KiCad,Pcbnew,9.0.7*%
%TF.CreationDate,2026-03-07T21:35:13-05:00*%
%TF.ProjectId,Battery_Charger_Balancer_2,42617474-6572-4795-9f43-686172676572,rev?*%
%TF.SameCoordinates,Original*%
%TF.FileFunction,Drillmap*%
%TF.FilePolarity,Positive*%
%FSLAX45Y45*%
G04 Gerber Fmt 4.5, Leading zero omitted, Abs format (unit mm)*
G04 Created by KiCad (PCBNEW 9.0.7) date 2026-03-07 21:35:13*
%MOMM*%
%LPD*%
G01*
G04 APERTURE LIST*
%ADD10C,0.100000*%
%ADD11C,0.200000*%
%ADD12C,0.120000*%
%ADD13C,0.220000*%
G04 APERTURE END LIST*
D10*
X1200000Y-1430000D02*
X1200000Y-7470000D01*
X1200000Y-1430000D02*
G75*
G02*
X1430000Y-1200000I230000J0D01*
G01*
X4800000Y-7470000D02*
G75*
G02*
X4570000Y-7700000I-230000J0D01*
G01*
X4570000Y-1200000D02*
G75*
G02*
X4800000Y-1430000I0J-230000D01*
G01*
X4800000Y-1430000D02*
X4800000Y-7470000D01*
X1430000Y-7700000D02*
G75*
G02*
X1200000Y-7470000I0J230000D01*
G01*
X1430000Y-7700000D02*
X4570000Y-7700000D01*
X1430000Y-1200000D02*
X4570000Y-1200000D01*
D11*
D10*
X2681000Y-1795500D02*
X2751000Y-1865500D01*
X2751000Y-1795500D02*
X2681000Y-1865500D01*
X3259000Y-1795500D02*
X3329000Y-1865500D01*
X3329000Y-1795500D02*
X3259000Y-1865500D01*
D12*
X1430000Y-3160000D02*
G75*
G02*
X1310000Y-3160000I-60000J0D01*
G01*
X1310000Y-3160000D02*
G75*
G02*
X1430000Y-3160000I60000J0D01*
G01*
X1485000Y-7430000D02*
G75*
G02*
X1365000Y-7430000I-60000J0D01*
G01*
X1365000Y-7430000D02*
G75*
G02*
X1485000Y-7430000I60000J0D01*
G01*
D13*
X1500000Y-6595000D02*
X1500000Y-6815000D01*
X1390000Y-6705000D02*
X1610000Y-6705000D01*
X4475000Y-3155000D02*
X4475000Y-3375000D01*
X4365000Y-3265000D02*
X4585000Y-3265000D01*
D11*
X1455777Y-8016484D02*
X1455777Y-7816484D01*
X1455777Y-7816484D02*
X1503396Y-7816484D01*
X1503396Y-7816484D02*
X1531967Y-7826008D01*
X1531967Y-7826008D02*
X1551015Y-7845055D01*
X1551015Y-7845055D02*
X1560539Y-7864103D01*
X1560539Y-7864103D02*
X1570062Y-7902198D01*
X1570062Y-7902198D02*
X1570062Y-7930769D01*
X1570062Y-7930769D02*
X1560539Y-7968865D01*
X1560539Y-7968865D02*
X1551015Y-7987912D01*
X1551015Y-7987912D02*
X1531967Y-8006960D01*
X1531967Y-8006960D02*
X1503396Y-8016484D01*
X1503396Y-8016484D02*
X1455777Y-8016484D01*
X1655777Y-8016484D02*
X1655777Y-7883150D01*
X1655777Y-7921246D02*
X1665301Y-7902198D01*
X1665301Y-7902198D02*
X1674824Y-7892674D01*
X1674824Y-7892674D02*
X1693872Y-7883150D01*
X1693872Y-7883150D02*
X1712920Y-7883150D01*
X1779586Y-8016484D02*
X1779586Y-7883150D01*
X1779586Y-7816484D02*
X1770062Y-7826008D01*
X1770062Y-7826008D02*
X1779586Y-7835531D01*
X1779586Y-7835531D02*
X1789110Y-7826008D01*
X1789110Y-7826008D02*
X1779586Y-7816484D01*
X1779586Y-7816484D02*
X1779586Y-7835531D01*
X1903396Y-8016484D02*
X1884348Y-8006960D01*
X1884348Y-8006960D02*
X1874824Y-7987912D01*
X1874824Y-7987912D02*
X1874824Y-7816484D01*
X2008158Y-8016484D02*
X1989110Y-8006960D01*
X1989110Y-8006960D02*
X1979586Y-7987912D01*
X1979586Y-7987912D02*
X1979586Y-7816484D01*
X2236729Y-8016484D02*
X2236729Y-7816484D01*
X2236729Y-7816484D02*
X2303396Y-7959341D01*
X2303396Y-7959341D02*
X2370063Y-7816484D01*
X2370063Y-7816484D02*
X2370063Y-8016484D01*
X2551015Y-8016484D02*
X2551015Y-7911722D01*
X2551015Y-7911722D02*
X2541491Y-7892674D01*
X2541491Y-7892674D02*
X2522444Y-7883150D01*
X2522444Y-7883150D02*
X2484348Y-7883150D01*
X2484348Y-7883150D02*
X2465301Y-7892674D01*
X2551015Y-8006960D02*
X2531967Y-8016484D01*
X2531967Y-8016484D02*
X2484348Y-8016484D01*
X2484348Y-8016484D02*
X2465301Y-8006960D01*
X2465301Y-8006960D02*
X2455777Y-7987912D01*
X2455777Y-7987912D02*
X2455777Y-7968865D01*
X2455777Y-7968865D02*
X2465301Y-7949817D01*
X2465301Y-7949817D02*
X2484348Y-7940293D01*
X2484348Y-7940293D02*
X2531967Y-7940293D01*
X2531967Y-7940293D02*
X2551015Y-7930769D01*
X2646253Y-7883150D02*
X2646253Y-8083150D01*
X2646253Y-7892674D02*
X2665301Y-7883150D01*
X2665301Y-7883150D02*
X2703396Y-7883150D01*
X2703396Y-7883150D02*
X2722444Y-7892674D01*
X2722444Y-7892674D02*
X2731967Y-7902198D01*
X2731967Y-7902198D02*
X2741491Y-7921246D01*
X2741491Y-7921246D02*
X2741491Y-7978388D01*
X2741491Y-7978388D02*
X2731967Y-7997436D01*
X2731967Y-7997436D02*
X2722444Y-8006960D01*
X2722444Y-8006960D02*
X2703396Y-8016484D01*
X2703396Y-8016484D02*
X2665301Y-8016484D01*
X2665301Y-8016484D02*
X2646253Y-8006960D01*
X2827205Y-7997436D02*
X2836729Y-8006960D01*
X2836729Y-8006960D02*
X2827205Y-8016484D01*
X2827205Y-8016484D02*
X2817682Y-8006960D01*
X2817682Y-8006960D02*
X2827205Y-7997436D01*
X2827205Y-7997436D02*
X2827205Y-8016484D01*
X2827205Y-7892674D02*
X2836729Y-7902198D01*
X2836729Y-7902198D02*
X2827205Y-7911722D01*
X2827205Y-7911722D02*
X2817682Y-7902198D01*
X2817682Y-7902198D02*
X2827205Y-7892674D01*
X2827205Y-7892674D02*
X2827205Y-7911722D01*
D10*
X1125000Y-8310000D02*
X1195000Y-8380000D01*
X1195000Y-8310000D02*
X1125000Y-8380000D01*
D11*
X1493872Y-8236484D02*
X1512920Y-8236484D01*
X1512920Y-8236484D02*
X1531967Y-8246008D01*
X1531967Y-8246008D02*
X1541491Y-8255531D01*
X1541491Y-8255531D02*
X1551015Y-8274579D01*
X1551015Y-8274579D02*
X1560539Y-8312674D01*
X1560539Y-8312674D02*
X1560539Y-8360293D01*
X1560539Y-8360293D02*
X1551015Y-8398389D01*
X1551015Y-8398389D02*
X1541491Y-8417436D01*
X1541491Y-8417436D02*
X1531967Y-8426960D01*
X1531967Y-8426960D02*
X1512920Y-8436484D01*
X1512920Y-8436484D02*
X1493872Y-8436484D01*
X1493872Y-8436484D02*
X1474824Y-8426960D01*
X1474824Y-8426960D02*
X1465301Y-8417436D01*
X1465301Y-8417436D02*
X1455777Y-8398389D01*
X1455777Y-8398389D02*
X1446253Y-8360293D01*
X1446253Y-8360293D02*
X1446253Y-8312674D01*
X1446253Y-8312674D02*
X1455777Y-8274579D01*
X1455777Y-8274579D02*
X1465301Y-8255531D01*
X1465301Y-8255531D02*
X1474824Y-8246008D01*
X1474824Y-8246008D02*
X1493872Y-8236484D01*
X1646253Y-8417436D02*
X1655777Y-8426960D01*
X1655777Y-8426960D02*
X1646253Y-8436484D01*
X1646253Y-8436484D02*
X1636729Y-8426960D01*
X1636729Y-8426960D02*
X1646253Y-8417436D01*
X1646253Y-8417436D02*
X1646253Y-8436484D01*
X1722443Y-8236484D02*
X1855777Y-8236484D01*
X1855777Y-8236484D02*
X1770062Y-8436484D01*
X1970062Y-8236484D02*
X1989110Y-8236484D01*
X1989110Y-8236484D02*
X2008158Y-8246008D01*
X2008158Y-8246008D02*
X2017682Y-8255531D01*
X2017682Y-8255531D02*
X2027205Y-8274579D01*
X2027205Y-8274579D02*
X2036729Y-8312674D01*
X2036729Y-8312674D02*
X2036729Y-8360293D01*
X2036729Y-8360293D02*
X2027205Y-8398389D01*
X2027205Y-8398389D02*
X2017682Y-8417436D01*
X2017682Y-8417436D02*
X2008158Y-8426960D01*
X2008158Y-8426960D02*
X1989110Y-8436484D01*
X1989110Y-8436484D02*
X1970062Y-8436484D01*
X1970062Y-8436484D02*
X1951015Y-8426960D01*
X1951015Y-8426960D02*
X1941491Y-8417436D01*
X1941491Y-8417436D02*
X1931967Y-8398389D01*
X1931967Y-8398389D02*
X1922443Y-8360293D01*
X1922443Y-8360293D02*
X1922443Y-8312674D01*
X1922443Y-8312674D02*
X1931967Y-8274579D01*
X1931967Y-8274579D02*
X1941491Y-8255531D01*
X1941491Y-8255531D02*
X1951015Y-8246008D01*
X1951015Y-8246008D02*
X1970062Y-8236484D01*
X2160539Y-8236484D02*
X2179586Y-8236484D01*
X2179586Y-8236484D02*
X2198634Y-8246008D01*
X2198634Y-8246008D02*
X2208158Y-8255531D01*
X2208158Y-8255531D02*
X2217682Y-8274579D01*
X2217682Y-8274579D02*
X2227205Y-8312674D01*
X2227205Y-8312674D02*
X2227205Y-8360293D01*
X2227205Y-8360293D02*
X2217682Y-8398389D01*
X2217682Y-8398389D02*
X2208158Y-8417436D01*
X2208158Y-8417436D02*
X2198634Y-8426960D01*
X2198634Y-8426960D02*
X2179586Y-8436484D01*
X2179586Y-8436484D02*
X2160539Y-8436484D01*
X2160539Y-8436484D02*
X2141491Y-8426960D01*
X2141491Y-8426960D02*
X2131967Y-8417436D01*
X2131967Y-8417436D02*
X2122444Y-8398389D01*
X2122444Y-8398389D02*
X2112920Y-8360293D01*
X2112920Y-8360293D02*
X2112920Y-8312674D01*
X2112920Y-8312674D02*
X2122444Y-8274579D01*
X2122444Y-8274579D02*
X2131967Y-8255531D01*
X2131967Y-8255531D02*
X2141491Y-8246008D01*
X2141491Y-8246008D02*
X2160539Y-8236484D01*
X2312920Y-8436484D02*
X2312920Y-8303150D01*
X2312920Y-8322198D02*
X2322444Y-8312674D01*
X2322444Y-8312674D02*
X2341491Y-8303150D01*
X2341491Y-8303150D02*
X2370063Y-8303150D01*
X2370063Y-8303150D02*
X2389110Y-8312674D01*
X2389110Y-8312674D02*
X2398634Y-8331722D01*
X2398634Y-8331722D02*
X2398634Y-8436484D01*
X2398634Y-8331722D02*
X2408158Y-8312674D01*
X2408158Y-8312674D02*
X2427205Y-8303150D01*
X2427205Y-8303150D02*
X2455777Y-8303150D01*
X2455777Y-8303150D02*
X2474825Y-8312674D01*
X2474825Y-8312674D02*
X2484348Y-8331722D01*
X2484348Y-8331722D02*
X2484348Y-8436484D01*
X2579586Y-8436484D02*
X2579586Y-8303150D01*
X2579586Y-8322198D02*
X2589110Y-8312674D01*
X2589110Y-8312674D02*
X2608158Y-8303150D01*
X2608158Y-8303150D02*
X2636729Y-8303150D01*
X2636729Y-8303150D02*
X2655777Y-8312674D01*
X2655777Y-8312674D02*
X2665301Y-8331722D01*
X2665301Y-8331722D02*
X2665301Y-8436484D01*
X2665301Y-8331722D02*
X2674825Y-8312674D01*
X2674825Y-8312674D02*
X2693872Y-8303150D01*
X2693872Y-8303150D02*
X2722444Y-8303150D01*
X2722444Y-8303150D02*
X2741491Y-8312674D01*
X2741491Y-8312674D02*
X2751015Y-8331722D01*
X2751015Y-8331722D02*
X2751015Y-8436484D01*
X3141491Y-8226960D02*
X2970063Y-8484103D01*
X3398634Y-8236484D02*
X3417682Y-8236484D01*
X3417682Y-8236484D02*
X3436729Y-8246008D01*
X3436729Y-8246008D02*
X3446253Y-8255531D01*
X3446253Y-8255531D02*
X3455777Y-8274579D01*
X3455777Y-8274579D02*
X3465301Y-8312674D01*
X3465301Y-8312674D02*
X3465301Y-8360293D01*
X3465301Y-8360293D02*
X3455777Y-8398389D01*
X3455777Y-8398389D02*
X3446253Y-8417436D01*
X3446253Y-8417436D02*
X3436729Y-8426960D01*
X3436729Y-8426960D02*
X3417682Y-8436484D01*
X3417682Y-8436484D02*
X3398634Y-8436484D01*
X3398634Y-8436484D02*
X3379586Y-8426960D01*
X3379586Y-8426960D02*
X3370063Y-8417436D01*
X3370063Y-8417436D02*
X3360539Y-8398389D01*
X3360539Y-8398389D02*
X3351015Y-8360293D01*
X3351015Y-8360293D02*
X3351015Y-8312674D01*
X3351015Y-8312674D02*
X3360539Y-8274579D01*
X3360539Y-8274579D02*
X3370063Y-8255531D01*
X3370063Y-8255531D02*
X3379586Y-8246008D01*
X3379586Y-8246008D02*
X3398634Y-8236484D01*
X3551015Y-8417436D02*
X3560539Y-8426960D01*
X3560539Y-8426960D02*
X3551015Y-8436484D01*
X3551015Y-8436484D02*
X3541491Y-8426960D01*
X3541491Y-8426960D02*
X3551015Y-8417436D01*
X3551015Y-8417436D02*
X3551015Y-8436484D01*
X3684348Y-8236484D02*
X3703396Y-8236484D01*
X3703396Y-8236484D02*
X3722444Y-8246008D01*
X3722444Y-8246008D02*
X3731967Y-8255531D01*
X3731967Y-8255531D02*
X3741491Y-8274579D01*
X3741491Y-8274579D02*
X3751015Y-8312674D01*
X3751015Y-8312674D02*
X3751015Y-8360293D01*
X3751015Y-8360293D02*
X3741491Y-8398389D01*
X3741491Y-8398389D02*
X3731967Y-8417436D01*
X3731967Y-8417436D02*
X3722444Y-8426960D01*
X3722444Y-8426960D02*
X3703396Y-8436484D01*
X3703396Y-8436484D02*
X3684348Y-8436484D01*
X3684348Y-8436484D02*
X3665301Y-8426960D01*
X3665301Y-8426960D02*
X3655777Y-8417436D01*
X3655777Y-8417436D02*
X3646253Y-8398389D01*
X3646253Y-8398389D02*
X3636729Y-8360293D01*
X3636729Y-8360293D02*
X3636729Y-8312674D01*
X3636729Y-8312674D02*
X3646253Y-8274579D01*
X3646253Y-8274579D02*
X3655777Y-8255531D01*
X3655777Y-8255531D02*
X3665301Y-8246008D01*
X3665301Y-8246008D02*
X3684348Y-8236484D01*
X3827206Y-8255531D02*
X3836729Y-8246008D01*
X3836729Y-8246008D02*
X3855777Y-8236484D01*
X3855777Y-8236484D02*
X3903396Y-8236484D01*
X3903396Y-8236484D02*
X3922444Y-8246008D01*
X3922444Y-8246008D02*
X3931967Y-8255531D01*
X3931967Y-8255531D02*
X3941491Y-8274579D01*
X3941491Y-8274579D02*
X3941491Y-8293627D01*
X3941491Y-8293627D02*
X3931967Y-8322198D01*
X3931967Y-8322198D02*
X3817682Y-8436484D01*
X3817682Y-8436484D02*
X3941491Y-8436484D01*
X4008158Y-8236484D02*
X4141491Y-8236484D01*
X4141491Y-8236484D02*
X4055777Y-8436484D01*
X4303396Y-8236484D02*
X4265301Y-8236484D01*
X4265301Y-8236484D02*
X4246253Y-8246008D01*
X4246253Y-8246008D02*
X4236729Y-8255531D01*
X4236729Y-8255531D02*
X4217682Y-8284103D01*
X4217682Y-8284103D02*
X4208158Y-8322198D01*
X4208158Y-8322198D02*
X4208158Y-8398389D01*
X4208158Y-8398389D02*
X4217682Y-8417436D01*
X4217682Y-8417436D02*
X4227206Y-8426960D01*
X4227206Y-8426960D02*
X4246253Y-8436484D01*
X4246253Y-8436484D02*
X4284349Y-8436484D01*
X4284349Y-8436484D02*
X4303396Y-8426960D01*
X4303396Y-8426960D02*
X4312920Y-8417436D01*
X4312920Y-8417436D02*
X4322444Y-8398389D01*
X4322444Y-8398389D02*
X4322444Y-8350769D01*
X4322444Y-8350769D02*
X4312920Y-8331722D01*
X4312920Y-8331722D02*
X4303396Y-8322198D01*
X4303396Y-8322198D02*
X4284349Y-8312674D01*
X4284349Y-8312674D02*
X4246253Y-8312674D01*
X4246253Y-8312674D02*
X4227206Y-8322198D01*
X4227206Y-8322198D02*
X4217682Y-8331722D01*
X4217682Y-8331722D02*
X4208158Y-8350769D01*
X4398634Y-8236484D02*
X4398634Y-8274579D01*
X4474825Y-8236484D02*
X4474825Y-8274579D01*
X4770063Y-8512674D02*
X4760539Y-8503150D01*
X4760539Y-8503150D02*
X4741491Y-8474579D01*
X4741491Y-8474579D02*
X4731968Y-8455531D01*
X4731968Y-8455531D02*
X4722444Y-8426960D01*
X4722444Y-8426960D02*
X4712920Y-8379341D01*
X4712920Y-8379341D02*
X4712920Y-8341246D01*
X4712920Y-8341246D02*
X4722444Y-8293627D01*
X4722444Y-8293627D02*
X4731968Y-8265055D01*
X4731968Y-8265055D02*
X4741491Y-8246008D01*
X4741491Y-8246008D02*
X4760539Y-8217436D01*
X4760539Y-8217436D02*
X4770063Y-8207912D01*
X4836730Y-8255531D02*
X4846253Y-8246008D01*
X4846253Y-8246008D02*
X4865301Y-8236484D01*
X4865301Y-8236484D02*
X4912920Y-8236484D01*
X4912920Y-8236484D02*
X4931968Y-8246008D01*
X4931968Y-8246008D02*
X4941491Y-8255531D01*
X4941491Y-8255531D02*
X4951015Y-8274579D01*
X4951015Y-8274579D02*
X4951015Y-8293627D01*
X4951015Y-8293627D02*
X4941491Y-8322198D01*
X4941491Y-8322198D02*
X4827206Y-8436484D01*
X4827206Y-8436484D02*
X4951015Y-8436484D01*
X5189111Y-8436484D02*
X5189111Y-8236484D01*
X5274825Y-8436484D02*
X5274825Y-8331722D01*
X5274825Y-8331722D02*
X5265301Y-8312674D01*
X5265301Y-8312674D02*
X5246253Y-8303150D01*
X5246253Y-8303150D02*
X5217682Y-8303150D01*
X5217682Y-8303150D02*
X5198634Y-8312674D01*
X5198634Y-8312674D02*
X5189111Y-8322198D01*
X5398634Y-8436484D02*
X5379587Y-8426960D01*
X5379587Y-8426960D02*
X5370063Y-8417436D01*
X5370063Y-8417436D02*
X5360539Y-8398389D01*
X5360539Y-8398389D02*
X5360539Y-8341246D01*
X5360539Y-8341246D02*
X5370063Y-8322198D01*
X5370063Y-8322198D02*
X5379587Y-8312674D01*
X5379587Y-8312674D02*
X5398634Y-8303150D01*
X5398634Y-8303150D02*
X5427206Y-8303150D01*
X5427206Y-8303150D02*
X5446253Y-8312674D01*
X5446253Y-8312674D02*
X5455777Y-8322198D01*
X5455777Y-8322198D02*
X5465301Y-8341246D01*
X5465301Y-8341246D02*
X5465301Y-8398389D01*
X5465301Y-8398389D02*
X5455777Y-8417436D01*
X5455777Y-8417436D02*
X5446253Y-8426960D01*
X5446253Y-8426960D02*
X5427206Y-8436484D01*
X5427206Y-8436484D02*
X5398634Y-8436484D01*
X5579587Y-8436484D02*
X5560539Y-8426960D01*
X5560539Y-8426960D02*
X5551015Y-8407912D01*
X5551015Y-8407912D02*
X5551015Y-8236484D01*
X5731968Y-8426960D02*
X5712920Y-8436484D01*
X5712920Y-8436484D02*
X5674825Y-8436484D01*
X5674825Y-8436484D02*
X5655777Y-8426960D01*
X5655777Y-8426960D02*
X5646253Y-8407912D01*
X5646253Y-8407912D02*
X5646253Y-8331722D01*
X5646253Y-8331722D02*
X5655777Y-8312674D01*
X5655777Y-8312674D02*
X5674825Y-8303150D01*
X5674825Y-8303150D02*
X5712920Y-8303150D01*
X5712920Y-8303150D02*
X5731968Y-8312674D01*
X5731968Y-8312674D02*
X5741491Y-8331722D01*
X5741491Y-8331722D02*
X5741491Y-8350769D01*
X5741491Y-8350769D02*
X5646253Y-8369817D01*
X5817682Y-8426960D02*
X5836730Y-8436484D01*
X5836730Y-8436484D02*
X5874825Y-8436484D01*
X5874825Y-8436484D02*
X5893872Y-8426960D01*
X5893872Y-8426960D02*
X5903396Y-8407912D01*
X5903396Y-8407912D02*
X5903396Y-8398389D01*
X5903396Y-8398389D02*
X5893872Y-8379341D01*
X5893872Y-8379341D02*
X5874825Y-8369817D01*
X5874825Y-8369817D02*
X5846253Y-8369817D01*
X5846253Y-8369817D02*
X5827206Y-8360293D01*
X5827206Y-8360293D02*
X5817682Y-8341246D01*
X5817682Y-8341246D02*
X5817682Y-8331722D01*
X5817682Y-8331722D02*
X5827206Y-8312674D01*
X5827206Y-8312674D02*
X5846253Y-8303150D01*
X5846253Y-8303150D02*
X5874825Y-8303150D01*
X5874825Y-8303150D02*
X5893872Y-8312674D01*
X5970063Y-8512674D02*
X5979587Y-8503150D01*
X5979587Y-8503150D02*
X5998634Y-8474579D01*
X5998634Y-8474579D02*
X6008158Y-8455531D01*
X6008158Y-8455531D02*
X6017682Y-8426960D01*
X6017682Y-8426960D02*
X6027206Y-8379341D01*
X6027206Y-8379341D02*
X6027206Y-8341246D01*
X6027206Y-8341246D02*
X6017682Y-8293627D01*
X6017682Y-8293627D02*
X6008158Y-8265055D01*
X6008158Y-8265055D02*
X5998634Y-8246008D01*
X5998634Y-8246008D02*
X5979587Y-8217436D01*
X5979587Y-8217436D02*
X5970063Y-8207912D01*
X6331968Y-8512674D02*
X6322444Y-8503150D01*
X6322444Y-8503150D02*
X6303396Y-8474579D01*
X6303396Y-8474579D02*
X6293872Y-8455531D01*
X6293872Y-8455531D02*
X6284349Y-8426960D01*
X6284349Y-8426960D02*
X6274825Y-8379341D01*
X6274825Y-8379341D02*
X6274825Y-8341246D01*
X6274825Y-8341246D02*
X6284349Y-8293627D01*
X6284349Y-8293627D02*
X6293872Y-8265055D01*
X6293872Y-8265055D02*
X6303396Y-8246008D01*
X6303396Y-8246008D02*
X6322444Y-8217436D01*
X6322444Y-8217436D02*
X6331968Y-8207912D01*
X6408158Y-8303150D02*
X6408158Y-8436484D01*
X6408158Y-8322198D02*
X6417682Y-8312674D01*
X6417682Y-8312674D02*
X6436730Y-8303150D01*
X6436730Y-8303150D02*
X6465301Y-8303150D01*
X6465301Y-8303150D02*
X6484349Y-8312674D01*
X6484349Y-8312674D02*
X6493872Y-8331722D01*
X6493872Y-8331722D02*
X6493872Y-8436484D01*
X6617682Y-8436484D02*
X6598634Y-8426960D01*
X6598634Y-8426960D02*
X6589111Y-8417436D01*
X6589111Y-8417436D02*
X6579587Y-8398389D01*
X6579587Y-8398389D02*
X6579587Y-8341246D01*
X6579587Y-8341246D02*
X6589111Y-8322198D01*
X6589111Y-8322198D02*
X6598634Y-8312674D01*
X6598634Y-8312674D02*
X6617682Y-8303150D01*
X6617682Y-8303150D02*
X6646253Y-8303150D01*
X6646253Y-8303150D02*
X6665301Y-8312674D01*
X6665301Y-8312674D02*
X6674825Y-8322198D01*
X6674825Y-8322198D02*
X6684349Y-8341246D01*
X6684349Y-8341246D02*
X6684349Y-8398389D01*
X6684349Y-8398389D02*
X6674825Y-8417436D01*
X6674825Y-8417436D02*
X6665301Y-8426960D01*
X6665301Y-8426960D02*
X6646253Y-8436484D01*
X6646253Y-8436484D02*
X6617682Y-8436484D01*
X6741492Y-8303150D02*
X6817682Y-8303150D01*
X6770063Y-8236484D02*
X6770063Y-8407912D01*
X6770063Y-8407912D02*
X6779587Y-8426960D01*
X6779587Y-8426960D02*
X6798634Y-8436484D01*
X6798634Y-8436484D02*
X6817682Y-8436484D01*
X7036730Y-8303150D02*
X7036730Y-8503150D01*
X7036730Y-8312674D02*
X7055777Y-8303150D01*
X7055777Y-8303150D02*
X7093873Y-8303150D01*
X7093873Y-8303150D02*
X7112920Y-8312674D01*
X7112920Y-8312674D02*
X7122444Y-8322198D01*
X7122444Y-8322198D02*
X7131968Y-8341246D01*
X7131968Y-8341246D02*
X7131968Y-8398389D01*
X7131968Y-8398389D02*
X7122444Y-8417436D01*
X7122444Y-8417436D02*
X7112920Y-8426960D01*
X7112920Y-8426960D02*
X7093873Y-8436484D01*
X7093873Y-8436484D02*
X7055777Y-8436484D01*
X7055777Y-8436484D02*
X7036730Y-8426960D01*
X7246253Y-8436484D02*
X7227206Y-8426960D01*
X7227206Y-8426960D02*
X7217682Y-8407912D01*
X7217682Y-8407912D02*
X7217682Y-8236484D01*
X7408158Y-8436484D02*
X7408158Y-8331722D01*
X7408158Y-8331722D02*
X7398634Y-8312674D01*
X7398634Y-8312674D02*
X7379587Y-8303150D01*
X7379587Y-8303150D02*
X7341492Y-8303150D01*
X7341492Y-8303150D02*
X7322444Y-8312674D01*
X7408158Y-8426960D02*
X7389111Y-8436484D01*
X7389111Y-8436484D02*
X7341492Y-8436484D01*
X7341492Y-8436484D02*
X7322444Y-8426960D01*
X7322444Y-8426960D02*
X7312920Y-8407912D01*
X7312920Y-8407912D02*
X7312920Y-8388865D01*
X7312920Y-8388865D02*
X7322444Y-8369817D01*
X7322444Y-8369817D02*
X7341492Y-8360293D01*
X7341492Y-8360293D02*
X7389111Y-8360293D01*
X7389111Y-8360293D02*
X7408158Y-8350769D01*
X7474825Y-8303150D02*
X7551015Y-8303150D01*
X7503396Y-8236484D02*
X7503396Y-8407912D01*
X7503396Y-8407912D02*
X7512920Y-8426960D01*
X7512920Y-8426960D02*
X7531968Y-8436484D01*
X7531968Y-8436484D02*
X7551015Y-8436484D01*
X7693873Y-8426960D02*
X7674825Y-8436484D01*
X7674825Y-8436484D02*
X7636730Y-8436484D01*
X7636730Y-8436484D02*
X7617682Y-8426960D01*
X7617682Y-8426960D02*
X7608158Y-8407912D01*
X7608158Y-8407912D02*
X7608158Y-8331722D01*
X7608158Y-8331722D02*
X7617682Y-8312674D01*
X7617682Y-8312674D02*
X7636730Y-8303150D01*
X7636730Y-8303150D02*
X7674825Y-8303150D01*
X7674825Y-8303150D02*
X7693873Y-8312674D01*
X7693873Y-8312674D02*
X7703396Y-8331722D01*
X7703396Y-8331722D02*
X7703396Y-8350769D01*
X7703396Y-8350769D02*
X7608158Y-8369817D01*
X7874825Y-8436484D02*
X7874825Y-8236484D01*
X7874825Y-8426960D02*
X7855777Y-8436484D01*
X7855777Y-8436484D02*
X7817682Y-8436484D01*
X7817682Y-8436484D02*
X7798634Y-8426960D01*
X7798634Y-8426960D02*
X7789111Y-8417436D01*
X7789111Y-8417436D02*
X7779587Y-8398389D01*
X7779587Y-8398389D02*
X7779587Y-8341246D01*
X7779587Y-8341246D02*
X7789111Y-8322198D01*
X7789111Y-8322198D02*
X7798634Y-8312674D01*
X7798634Y-8312674D02*
X7817682Y-8303150D01*
X7817682Y-8303150D02*
X7855777Y-8303150D01*
X7855777Y-8303150D02*
X7874825Y-8312674D01*
X7951015Y-8512674D02*
X7960539Y-8503150D01*
X7960539Y-8503150D02*
X7979587Y-8474579D01*
X7979587Y-8474579D02*
X7989111Y-8455531D01*
X7989111Y-8455531D02*
X7998634Y-8426960D01*
X7998634Y-8426960D02*
X8008158Y-8379341D01*
X8008158Y-8379341D02*
X8008158Y-8341246D01*
X8008158Y-8341246D02*
X7998634Y-8293627D01*
X7998634Y-8293627D02*
X7989111Y-8265055D01*
X7989111Y-8265055D02*
X7979587Y-8246008D01*
X7979587Y-8246008D02*
X7960539Y-8217436D01*
X7960539Y-8217436D02*
X7951015Y-8207912D01*
D12*
X1195000Y-8609000D02*
G75*
G02*
X1075000Y-8609000I-60000J0D01*
G01*
X1075000Y-8609000D02*
G75*
G02*
X1195000Y-8609000I60000J0D01*
G01*
D11*
X1560539Y-8700484D02*
X1446253Y-8700484D01*
X1503396Y-8700484D02*
X1503396Y-8500484D01*
X1503396Y-8500484D02*
X1484348Y-8529055D01*
X1484348Y-8529055D02*
X1465301Y-8548103D01*
X1465301Y-8548103D02*
X1446253Y-8557627D01*
X1646253Y-8681436D02*
X1655777Y-8690960D01*
X1655777Y-8690960D02*
X1646253Y-8700484D01*
X1646253Y-8700484D02*
X1636729Y-8690960D01*
X1636729Y-8690960D02*
X1646253Y-8681436D01*
X1646253Y-8681436D02*
X1646253Y-8700484D01*
X1731967Y-8519531D02*
X1741491Y-8510008D01*
X1741491Y-8510008D02*
X1760539Y-8500484D01*
X1760539Y-8500484D02*
X1808158Y-8500484D01*
X1808158Y-8500484D02*
X1827205Y-8510008D01*
X1827205Y-8510008D02*
X1836729Y-8519531D01*
X1836729Y-8519531D02*
X1846253Y-8538579D01*
X1846253Y-8538579D02*
X1846253Y-8557627D01*
X1846253Y-8557627D02*
X1836729Y-8586198D01*
X1836729Y-8586198D02*
X1722443Y-8700484D01*
X1722443Y-8700484D02*
X1846253Y-8700484D01*
X1970062Y-8500484D02*
X1989110Y-8500484D01*
X1989110Y-8500484D02*
X2008158Y-8510008D01*
X2008158Y-8510008D02*
X2017682Y-8519531D01*
X2017682Y-8519531D02*
X2027205Y-8538579D01*
X2027205Y-8538579D02*
X2036729Y-8576674D01*
X2036729Y-8576674D02*
X2036729Y-8624293D01*
X2036729Y-8624293D02*
X2027205Y-8662389D01*
X2027205Y-8662389D02*
X2017682Y-8681436D01*
X2017682Y-8681436D02*
X2008158Y-8690960D01*
X2008158Y-8690960D02*
X1989110Y-8700484D01*
X1989110Y-8700484D02*
X1970062Y-8700484D01*
X1970062Y-8700484D02*
X1951015Y-8690960D01*
X1951015Y-8690960D02*
X1941491Y-8681436D01*
X1941491Y-8681436D02*
X1931967Y-8662389D01*
X1931967Y-8662389D02*
X1922443Y-8624293D01*
X1922443Y-8624293D02*
X1922443Y-8576674D01*
X1922443Y-8576674D02*
X1931967Y-8538579D01*
X1931967Y-8538579D02*
X1941491Y-8519531D01*
X1941491Y-8519531D02*
X1951015Y-8510008D01*
X1951015Y-8510008D02*
X1970062Y-8500484D01*
X2160539Y-8500484D02*
X2179586Y-8500484D01*
X2179586Y-8500484D02*
X2198634Y-8510008D01*
X2198634Y-8510008D02*
X2208158Y-8519531D01*
X2208158Y-8519531D02*
X2217682Y-8538579D01*
X2217682Y-8538579D02*
X2227205Y-8576674D01*
X2227205Y-8576674D02*
X2227205Y-8624293D01*
X2227205Y-8624293D02*
X2217682Y-8662389D01*
X2217682Y-8662389D02*
X2208158Y-8681436D01*
X2208158Y-8681436D02*
X2198634Y-8690960D01*
X2198634Y-8690960D02*
X2179586Y-8700484D01*
X2179586Y-8700484D02*
X2160539Y-8700484D01*
X2160539Y-8700484D02*
X2141491Y-8690960D01*
X2141491Y-8690960D02*
X2131967Y-8681436D01*
X2131967Y-8681436D02*
X2122444Y-8662389D01*
X2122444Y-8662389D02*
X2112920Y-8624293D01*
X2112920Y-8624293D02*
X2112920Y-8576674D01*
X2112920Y-8576674D02*
X2122444Y-8538579D01*
X2122444Y-8538579D02*
X2131967Y-8519531D01*
X2131967Y-8519531D02*
X2141491Y-8510008D01*
X2141491Y-8510008D02*
X2160539Y-8500484D01*
X2312920Y-8700484D02*
X2312920Y-8567150D01*
X2312920Y-8586198D02*
X2322444Y-8576674D01*
X2322444Y-8576674D02*
X2341491Y-8567150D01*
X2341491Y-8567150D02*
X2370063Y-8567150D01*
X2370063Y-8567150D02*
X2389110Y-8576674D01*
X2389110Y-8576674D02*
X2398634Y-8595722D01*
X2398634Y-8595722D02*
X2398634Y-8700484D01*
X2398634Y-8595722D02*
X2408158Y-8576674D01*
X2408158Y-8576674D02*
X2427205Y-8567150D01*
X2427205Y-8567150D02*
X2455777Y-8567150D01*
X2455777Y-8567150D02*
X2474825Y-8576674D01*
X2474825Y-8576674D02*
X2484348Y-8595722D01*
X2484348Y-8595722D02*
X2484348Y-8700484D01*
X2579586Y-8700484D02*
X2579586Y-8567150D01*
X2579586Y-8586198D02*
X2589110Y-8576674D01*
X2589110Y-8576674D02*
X2608158Y-8567150D01*
X2608158Y-8567150D02*
X2636729Y-8567150D01*
X2636729Y-8567150D02*
X2655777Y-8576674D01*
X2655777Y-8576674D02*
X2665301Y-8595722D01*
X2665301Y-8595722D02*
X2665301Y-8700484D01*
X2665301Y-8595722D02*
X2674825Y-8576674D01*
X2674825Y-8576674D02*
X2693872Y-8567150D01*
X2693872Y-8567150D02*
X2722444Y-8567150D01*
X2722444Y-8567150D02*
X2741491Y-8576674D01*
X2741491Y-8576674D02*
X2751015Y-8595722D01*
X2751015Y-8595722D02*
X2751015Y-8700484D01*
X3141491Y-8490960D02*
X2970063Y-8748103D01*
X3398634Y-8500484D02*
X3417682Y-8500484D01*
X3417682Y-8500484D02*
X3436729Y-8510008D01*
X3436729Y-8510008D02*
X3446253Y-8519531D01*
X3446253Y-8519531D02*
X3455777Y-8538579D01*
X3455777Y-8538579D02*
X3465301Y-8576674D01*
X3465301Y-8576674D02*
X3465301Y-8624293D01*
X3465301Y-8624293D02*
X3455777Y-8662389D01*
X3455777Y-8662389D02*
X3446253Y-8681436D01*
X3446253Y-8681436D02*
X3436729Y-8690960D01*
X3436729Y-8690960D02*
X3417682Y-8700484D01*
X3417682Y-8700484D02*
X3398634Y-8700484D01*
X3398634Y-8700484D02*
X3379586Y-8690960D01*
X3379586Y-8690960D02*
X3370063Y-8681436D01*
X3370063Y-8681436D02*
X3360539Y-8662389D01*
X3360539Y-8662389D02*
X3351015Y-8624293D01*
X3351015Y-8624293D02*
X3351015Y-8576674D01*
X3351015Y-8576674D02*
X3360539Y-8538579D01*
X3360539Y-8538579D02*
X3370063Y-8519531D01*
X3370063Y-8519531D02*
X3379586Y-8510008D01*
X3379586Y-8510008D02*
X3398634Y-8500484D01*
X3551015Y-8681436D02*
X3560539Y-8690960D01*
X3560539Y-8690960D02*
X3551015Y-8700484D01*
X3551015Y-8700484D02*
X3541491Y-8690960D01*
X3541491Y-8690960D02*
X3551015Y-8681436D01*
X3551015Y-8681436D02*
X3551015Y-8700484D01*
X3684348Y-8500484D02*
X3703396Y-8500484D01*
X3703396Y-8500484D02*
X3722444Y-8510008D01*
X3722444Y-8510008D02*
X3731967Y-8519531D01*
X3731967Y-8519531D02*
X3741491Y-8538579D01*
X3741491Y-8538579D02*
X3751015Y-8576674D01*
X3751015Y-8576674D02*
X3751015Y-8624293D01*
X3751015Y-8624293D02*
X3741491Y-8662389D01*
X3741491Y-8662389D02*
X3731967Y-8681436D01*
X3731967Y-8681436D02*
X3722444Y-8690960D01*
X3722444Y-8690960D02*
X3703396Y-8700484D01*
X3703396Y-8700484D02*
X3684348Y-8700484D01*
X3684348Y-8700484D02*
X3665301Y-8690960D01*
X3665301Y-8690960D02*
X3655777Y-8681436D01*
X3655777Y-8681436D02*
X3646253Y-8662389D01*
X3646253Y-8662389D02*
X3636729Y-8624293D01*
X3636729Y-8624293D02*
X3636729Y-8576674D01*
X3636729Y-8576674D02*
X3646253Y-8538579D01*
X3646253Y-8538579D02*
X3655777Y-8519531D01*
X3655777Y-8519531D02*
X3665301Y-8510008D01*
X3665301Y-8510008D02*
X3684348Y-8500484D01*
X3922444Y-8567150D02*
X3922444Y-8700484D01*
X3874825Y-8490960D02*
X3827206Y-8633817D01*
X3827206Y-8633817D02*
X3951015Y-8633817D01*
X4008158Y-8500484D02*
X4141491Y-8500484D01*
X4141491Y-8500484D02*
X4055777Y-8700484D01*
X4208158Y-8519531D02*
X4217682Y-8510008D01*
X4217682Y-8510008D02*
X4236729Y-8500484D01*
X4236729Y-8500484D02*
X4284349Y-8500484D01*
X4284349Y-8500484D02*
X4303396Y-8510008D01*
X4303396Y-8510008D02*
X4312920Y-8519531D01*
X4312920Y-8519531D02*
X4322444Y-8538579D01*
X4322444Y-8538579D02*
X4322444Y-8557627D01*
X4322444Y-8557627D02*
X4312920Y-8586198D01*
X4312920Y-8586198D02*
X4198634Y-8700484D01*
X4198634Y-8700484D02*
X4322444Y-8700484D01*
X4398634Y-8500484D02*
X4398634Y-8538579D01*
X4474825Y-8500484D02*
X4474825Y-8538579D01*
X4770063Y-8776674D02*
X4760539Y-8767150D01*
X4760539Y-8767150D02*
X4741491Y-8738579D01*
X4741491Y-8738579D02*
X4731968Y-8719531D01*
X4731968Y-8719531D02*
X4722444Y-8690960D01*
X4722444Y-8690960D02*
X4712920Y-8643341D01*
X4712920Y-8643341D02*
X4712920Y-8605246D01*
X4712920Y-8605246D02*
X4722444Y-8557627D01*
X4722444Y-8557627D02*
X4731968Y-8529055D01*
X4731968Y-8529055D02*
X4741491Y-8510008D01*
X4741491Y-8510008D02*
X4760539Y-8481436D01*
X4760539Y-8481436D02*
X4770063Y-8471912D01*
X4836730Y-8519531D02*
X4846253Y-8510008D01*
X4846253Y-8510008D02*
X4865301Y-8500484D01*
X4865301Y-8500484D02*
X4912920Y-8500484D01*
X4912920Y-8500484D02*
X4931968Y-8510008D01*
X4931968Y-8510008D02*
X4941491Y-8519531D01*
X4941491Y-8519531D02*
X4951015Y-8538579D01*
X4951015Y-8538579D02*
X4951015Y-8557627D01*
X4951015Y-8557627D02*
X4941491Y-8586198D01*
X4941491Y-8586198D02*
X4827206Y-8700484D01*
X4827206Y-8700484D02*
X4951015Y-8700484D01*
X5189111Y-8700484D02*
X5189111Y-8500484D01*
X5274825Y-8700484D02*
X5274825Y-8595722D01*
X5274825Y-8595722D02*
X5265301Y-8576674D01*
X5265301Y-8576674D02*
X5246253Y-8567150D01*
X5246253Y-8567150D02*
X5217682Y-8567150D01*
X5217682Y-8567150D02*
X5198634Y-8576674D01*
X5198634Y-8576674D02*
X5189111Y-8586198D01*
X5398634Y-8700484D02*
X5379587Y-8690960D01*
X5379587Y-8690960D02*
X5370063Y-8681436D01*
X5370063Y-8681436D02*
X5360539Y-8662389D01*
X5360539Y-8662389D02*
X5360539Y-8605246D01*
X5360539Y-8605246D02*
X5370063Y-8586198D01*
X5370063Y-8586198D02*
X5379587Y-8576674D01*
X5379587Y-8576674D02*
X5398634Y-8567150D01*
X5398634Y-8567150D02*
X5427206Y-8567150D01*
X5427206Y-8567150D02*
X5446253Y-8576674D01*
X5446253Y-8576674D02*
X5455777Y-8586198D01*
X5455777Y-8586198D02*
X5465301Y-8605246D01*
X5465301Y-8605246D02*
X5465301Y-8662389D01*
X5465301Y-8662389D02*
X5455777Y-8681436D01*
X5455777Y-8681436D02*
X5446253Y-8690960D01*
X5446253Y-8690960D02*
X5427206Y-8700484D01*
X5427206Y-8700484D02*
X5398634Y-8700484D01*
X5579587Y-8700484D02*
X5560539Y-8690960D01*
X5560539Y-8690960D02*
X5551015Y-8671912D01*
X5551015Y-8671912D02*
X5551015Y-8500484D01*
X5731968Y-8690960D02*
X5712920Y-8700484D01*
X5712920Y-8700484D02*
X5674825Y-8700484D01*
X5674825Y-8700484D02*
X5655777Y-8690960D01*
X5655777Y-8690960D02*
X5646253Y-8671912D01*
X5646253Y-8671912D02*
X5646253Y-8595722D01*
X5646253Y-8595722D02*
X5655777Y-8576674D01*
X5655777Y-8576674D02*
X5674825Y-8567150D01*
X5674825Y-8567150D02*
X5712920Y-8567150D01*
X5712920Y-8567150D02*
X5731968Y-8576674D01*
X5731968Y-8576674D02*
X5741491Y-8595722D01*
X5741491Y-8595722D02*
X5741491Y-8614770D01*
X5741491Y-8614770D02*
X5646253Y-8633817D01*
X5817682Y-8690960D02*
X5836730Y-8700484D01*
X5836730Y-8700484D02*
X5874825Y-8700484D01*
X5874825Y-8700484D02*
X5893872Y-8690960D01*
X5893872Y-8690960D02*
X5903396Y-8671912D01*
X5903396Y-8671912D02*
X5903396Y-8662389D01*
X5903396Y-8662389D02*
X5893872Y-8643341D01*
X5893872Y-8643341D02*
X5874825Y-8633817D01*
X5874825Y-8633817D02*
X5846253Y-8633817D01*
X5846253Y-8633817D02*
X5827206Y-8624293D01*
X5827206Y-8624293D02*
X5817682Y-8605246D01*
X5817682Y-8605246D02*
X5817682Y-8595722D01*
X5817682Y-8595722D02*
X5827206Y-8576674D01*
X5827206Y-8576674D02*
X5846253Y-8567150D01*
X5846253Y-8567150D02*
X5874825Y-8567150D01*
X5874825Y-8567150D02*
X5893872Y-8576674D01*
X5970063Y-8776674D02*
X5979587Y-8767150D01*
X5979587Y-8767150D02*
X5998634Y-8738579D01*
X5998634Y-8738579D02*
X6008158Y-8719531D01*
X6008158Y-8719531D02*
X6017682Y-8690960D01*
X6017682Y-8690960D02*
X6027206Y-8643341D01*
X6027206Y-8643341D02*
X6027206Y-8605246D01*
X6027206Y-8605246D02*
X6017682Y-8557627D01*
X6017682Y-8557627D02*
X6008158Y-8529055D01*
X6008158Y-8529055D02*
X5998634Y-8510008D01*
X5998634Y-8510008D02*
X5979587Y-8481436D01*
X5979587Y-8481436D02*
X5970063Y-8471912D01*
X6331968Y-8776674D02*
X6322444Y-8767150D01*
X6322444Y-8767150D02*
X6303396Y-8738579D01*
X6303396Y-8738579D02*
X6293872Y-8719531D01*
X6293872Y-8719531D02*
X6284349Y-8690960D01*
X6284349Y-8690960D02*
X6274825Y-8643341D01*
X6274825Y-8643341D02*
X6274825Y-8605246D01*
X6274825Y-8605246D02*
X6284349Y-8557627D01*
X6284349Y-8557627D02*
X6293872Y-8529055D01*
X6293872Y-8529055D02*
X6303396Y-8510008D01*
X6303396Y-8510008D02*
X6322444Y-8481436D01*
X6322444Y-8481436D02*
X6331968Y-8471912D01*
X6408158Y-8567150D02*
X6408158Y-8700484D01*
X6408158Y-8586198D02*
X6417682Y-8576674D01*
X6417682Y-8576674D02*
X6436730Y-8567150D01*
X6436730Y-8567150D02*
X6465301Y-8567150D01*
X6465301Y-8567150D02*
X6484349Y-8576674D01*
X6484349Y-8576674D02*
X6493872Y-8595722D01*
X6493872Y-8595722D02*
X6493872Y-8700484D01*
X6617682Y-8700484D02*
X6598634Y-8690960D01*
X6598634Y-8690960D02*
X6589111Y-8681436D01*
X6589111Y-8681436D02*
X6579587Y-8662389D01*
X6579587Y-8662389D02*
X6579587Y-8605246D01*
X6579587Y-8605246D02*
X6589111Y-8586198D01*
X6589111Y-8586198D02*
X6598634Y-8576674D01*
X6598634Y-8576674D02*
X6617682Y-8567150D01*
X6617682Y-8567150D02*
X6646253Y-8567150D01*
X6646253Y-8567150D02*
X6665301Y-8576674D01*
X6665301Y-8576674D02*
X6674825Y-8586198D01*
X6674825Y-8586198D02*
X6684349Y-8605246D01*
X6684349Y-8605246D02*
X6684349Y-8662389D01*
X6684349Y-8662389D02*
X6674825Y-8681436D01*
X6674825Y-8681436D02*
X6665301Y-8690960D01*
X6665301Y-8690960D02*
X6646253Y-8700484D01*
X6646253Y-8700484D02*
X6617682Y-8700484D01*
X6741492Y-8567150D02*
X6817682Y-8567150D01*
X6770063Y-8500484D02*
X6770063Y-8671912D01*
X6770063Y-8671912D02*
X6779587Y-8690960D01*
X6779587Y-8690960D02*
X6798634Y-8700484D01*
X6798634Y-8700484D02*
X6817682Y-8700484D01*
X7036730Y-8567150D02*
X7036730Y-8767150D01*
X7036730Y-8576674D02*
X7055777Y-8567150D01*
X7055777Y-8567150D02*
X7093873Y-8567150D01*
X7093873Y-8567150D02*
X7112920Y-8576674D01*
X7112920Y-8576674D02*
X7122444Y-8586198D01*
X7122444Y-8586198D02*
X7131968Y-8605246D01*
X7131968Y-8605246D02*
X7131968Y-8662389D01*
X7131968Y-8662389D02*
X7122444Y-8681436D01*
X7122444Y-8681436D02*
X7112920Y-8690960D01*
X7112920Y-8690960D02*
X7093873Y-8700484D01*
X7093873Y-8700484D02*
X7055777Y-8700484D01*
X7055777Y-8700484D02*
X7036730Y-8690960D01*
X7246253Y-8700484D02*
X7227206Y-8690960D01*
X7227206Y-8690960D02*
X7217682Y-8671912D01*
X7217682Y-8671912D02*
X7217682Y-8500484D01*
X7408158Y-8700484D02*
X7408158Y-8595722D01*
X7408158Y-8595722D02*
X7398634Y-8576674D01*
X7398634Y-8576674D02*
X7379587Y-8567150D01*
X7379587Y-8567150D02*
X7341492Y-8567150D01*
X7341492Y-8567150D02*
X7322444Y-8576674D01*
X7408158Y-8690960D02*
X7389111Y-8700484D01*
X7389111Y-8700484D02*
X7341492Y-8700484D01*
X7341492Y-8700484D02*
X7322444Y-8690960D01*
X7322444Y-8690960D02*
X7312920Y-8671912D01*
X7312920Y-8671912D02*
X7312920Y-8652865D01*
X7312920Y-8652865D02*
X7322444Y-8633817D01*
X7322444Y-8633817D02*
X7341492Y-8624293D01*
X7341492Y-8624293D02*
X7389111Y-8624293D01*
X7389111Y-8624293D02*
X7408158Y-8614770D01*
X7474825Y-8567150D02*
X7551015Y-8567150D01*
X7503396Y-8500484D02*
X7503396Y-8671912D01*
X7503396Y-8671912D02*
X7512920Y-8690960D01*
X7512920Y-8690960D02*
X7531968Y-8700484D01*
X7531968Y-8700484D02*
X7551015Y-8700484D01*
X7693873Y-8690960D02*
X7674825Y-8700484D01*
X7674825Y-8700484D02*
X7636730Y-8700484D01*
X7636730Y-8700484D02*
X7617682Y-8690960D01*
X7617682Y-8690960D02*
X7608158Y-8671912D01*
X7608158Y-8671912D02*
X7608158Y-8595722D01*
X7608158Y-8595722D02*
X7617682Y-8576674D01*
X7617682Y-8576674D02*
X7636730Y-8567150D01*
X7636730Y-8567150D02*
X7674825Y-8567150D01*
X7674825Y-8567150D02*
X7693873Y-8576674D01*
X7693873Y-8576674D02*
X7703396Y-8595722D01*
X7703396Y-8595722D02*
X7703396Y-8614770D01*
X7703396Y-8614770D02*
X7608158Y-8633817D01*
X7874825Y-8700484D02*
X7874825Y-8500484D01*
X7874825Y-8690960D02*
X7855777Y-8700484D01*
X7855777Y-8700484D02*
X7817682Y-8700484D01*
X7817682Y-8700484D02*
X7798634Y-8690960D01*
X7798634Y-8690960D02*
X7789111Y-8681436D01*
X7789111Y-8681436D02*
X7779587Y-8662389D01*
X7779587Y-8662389D02*
X7779587Y-8605246D01*
X7779587Y-8605246D02*
X7789111Y-8586198D01*
X7789111Y-8586198D02*
X7798634Y-8576674D01*
X7798634Y-8576674D02*
X7817682Y-8567150D01*
X7817682Y-8567150D02*
X7855777Y-8567150D01*
X7855777Y-8567150D02*
X7874825Y-8576674D01*
X7951015Y-8776674D02*
X7960539Y-8767150D01*
X7960539Y-8767150D02*
X7979587Y-8738579D01*
X7979587Y-8738579D02*
X7989111Y-8719531D01*
X7989111Y-8719531D02*
X7998634Y-8690960D01*
X7998634Y-8690960D02*
X8008158Y-8643341D01*
X8008158Y-8643341D02*
X8008158Y-8605246D01*
X8008158Y-8605246D02*
X7998634Y-8557627D01*
X7998634Y-8557627D02*
X7989111Y-8529055D01*
X7989111Y-8529055D02*
X7979587Y-8510008D01*
X7979587Y-8510008D02*
X7960539Y-8481436D01*
X7960539Y-8481436D02*
X7951015Y-8471912D01*
X1095000Y-8773000D02*
X1095000Y-8973000D01*
X995000Y-8873000D02*
X1195000Y-8873000D01*
X1446253Y-8783531D02*
X1455777Y-8774008D01*
X1455777Y-8774008D02*
X1474824Y-8764484D01*
X1474824Y-8764484D02*
X1522443Y-8764484D01*
X1522443Y-8764484D02*
X1541491Y-8774008D01*
X1541491Y-8774008D02*
X1551015Y-8783531D01*
X1551015Y-8783531D02*
X1560539Y-8802579D01*
X1560539Y-8802579D02*
X1560539Y-8821627D01*
X1560539Y-8821627D02*
X1551015Y-8850198D01*
X1551015Y-8850198D02*
X1436729Y-8964484D01*
X1436729Y-8964484D02*
X1560539Y-8964484D01*
X1646253Y-8945436D02*
X1655777Y-8954960D01*
X1655777Y-8954960D02*
X1646253Y-8964484D01*
X1646253Y-8964484D02*
X1636729Y-8954960D01*
X1636729Y-8954960D02*
X1646253Y-8945436D01*
X1646253Y-8945436D02*
X1646253Y-8964484D01*
X1731967Y-8783531D02*
X1741491Y-8774008D01*
X1741491Y-8774008D02*
X1760539Y-8764484D01*
X1760539Y-8764484D02*
X1808158Y-8764484D01*
X1808158Y-8764484D02*
X1827205Y-8774008D01*
X1827205Y-8774008D02*
X1836729Y-8783531D01*
X1836729Y-8783531D02*
X1846253Y-8802579D01*
X1846253Y-8802579D02*
X1846253Y-8821627D01*
X1846253Y-8821627D02*
X1836729Y-8850198D01*
X1836729Y-8850198D02*
X1722443Y-8964484D01*
X1722443Y-8964484D02*
X1846253Y-8964484D01*
X1970062Y-8764484D02*
X1989110Y-8764484D01*
X1989110Y-8764484D02*
X2008158Y-8774008D01*
X2008158Y-8774008D02*
X2017682Y-8783531D01*
X2017682Y-8783531D02*
X2027205Y-8802579D01*
X2027205Y-8802579D02*
X2036729Y-8840674D01*
X2036729Y-8840674D02*
X2036729Y-8888293D01*
X2036729Y-8888293D02*
X2027205Y-8926389D01*
X2027205Y-8926389D02*
X2017682Y-8945436D01*
X2017682Y-8945436D02*
X2008158Y-8954960D01*
X2008158Y-8954960D02*
X1989110Y-8964484D01*
X1989110Y-8964484D02*
X1970062Y-8964484D01*
X1970062Y-8964484D02*
X1951015Y-8954960D01*
X1951015Y-8954960D02*
X1941491Y-8945436D01*
X1941491Y-8945436D02*
X1931967Y-8926389D01*
X1931967Y-8926389D02*
X1922443Y-8888293D01*
X1922443Y-8888293D02*
X1922443Y-8840674D01*
X1922443Y-8840674D02*
X1931967Y-8802579D01*
X1931967Y-8802579D02*
X1941491Y-8783531D01*
X1941491Y-8783531D02*
X1951015Y-8774008D01*
X1951015Y-8774008D02*
X1970062Y-8764484D01*
X2160539Y-8764484D02*
X2179586Y-8764484D01*
X2179586Y-8764484D02*
X2198634Y-8774008D01*
X2198634Y-8774008D02*
X2208158Y-8783531D01*
X2208158Y-8783531D02*
X2217682Y-8802579D01*
X2217682Y-8802579D02*
X2227205Y-8840674D01*
X2227205Y-8840674D02*
X2227205Y-8888293D01*
X2227205Y-8888293D02*
X2217682Y-8926389D01*
X2217682Y-8926389D02*
X2208158Y-8945436D01*
X2208158Y-8945436D02*
X2198634Y-8954960D01*
X2198634Y-8954960D02*
X2179586Y-8964484D01*
X2179586Y-8964484D02*
X2160539Y-8964484D01*
X2160539Y-8964484D02*
X2141491Y-8954960D01*
X2141491Y-8954960D02*
X2131967Y-8945436D01*
X2131967Y-8945436D02*
X2122444Y-8926389D01*
X2122444Y-8926389D02*
X2112920Y-8888293D01*
X2112920Y-8888293D02*
X2112920Y-8840674D01*
X2112920Y-8840674D02*
X2122444Y-8802579D01*
X2122444Y-8802579D02*
X2131967Y-8783531D01*
X2131967Y-8783531D02*
X2141491Y-8774008D01*
X2141491Y-8774008D02*
X2160539Y-8764484D01*
X2312920Y-8964484D02*
X2312920Y-8831150D01*
X2312920Y-8850198D02*
X2322444Y-8840674D01*
X2322444Y-8840674D02*
X2341491Y-8831150D01*
X2341491Y-8831150D02*
X2370063Y-8831150D01*
X2370063Y-8831150D02*
X2389110Y-8840674D01*
X2389110Y-8840674D02*
X2398634Y-8859722D01*
X2398634Y-8859722D02*
X2398634Y-8964484D01*
X2398634Y-8859722D02*
X2408158Y-8840674D01*
X2408158Y-8840674D02*
X2427205Y-8831150D01*
X2427205Y-8831150D02*
X2455777Y-8831150D01*
X2455777Y-8831150D02*
X2474825Y-8840674D01*
X2474825Y-8840674D02*
X2484348Y-8859722D01*
X2484348Y-8859722D02*
X2484348Y-8964484D01*
X2579586Y-8964484D02*
X2579586Y-8831150D01*
X2579586Y-8850198D02*
X2589110Y-8840674D01*
X2589110Y-8840674D02*
X2608158Y-8831150D01*
X2608158Y-8831150D02*
X2636729Y-8831150D01*
X2636729Y-8831150D02*
X2655777Y-8840674D01*
X2655777Y-8840674D02*
X2665301Y-8859722D01*
X2665301Y-8859722D02*
X2665301Y-8964484D01*
X2665301Y-8859722D02*
X2674825Y-8840674D01*
X2674825Y-8840674D02*
X2693872Y-8831150D01*
X2693872Y-8831150D02*
X2722444Y-8831150D01*
X2722444Y-8831150D02*
X2741491Y-8840674D01*
X2741491Y-8840674D02*
X2751015Y-8859722D01*
X2751015Y-8859722D02*
X2751015Y-8964484D01*
X3141491Y-8754960D02*
X2970063Y-9012103D01*
X3398634Y-8764484D02*
X3417682Y-8764484D01*
X3417682Y-8764484D02*
X3436729Y-8774008D01*
X3436729Y-8774008D02*
X3446253Y-8783531D01*
X3446253Y-8783531D02*
X3455777Y-8802579D01*
X3455777Y-8802579D02*
X3465301Y-8840674D01*
X3465301Y-8840674D02*
X3465301Y-8888293D01*
X3465301Y-8888293D02*
X3455777Y-8926389D01*
X3455777Y-8926389D02*
X3446253Y-8945436D01*
X3446253Y-8945436D02*
X3436729Y-8954960D01*
X3436729Y-8954960D02*
X3417682Y-8964484D01*
X3417682Y-8964484D02*
X3398634Y-8964484D01*
X3398634Y-8964484D02*
X3379586Y-8954960D01*
X3379586Y-8954960D02*
X3370063Y-8945436D01*
X3370063Y-8945436D02*
X3360539Y-8926389D01*
X3360539Y-8926389D02*
X3351015Y-8888293D01*
X3351015Y-8888293D02*
X3351015Y-8840674D01*
X3351015Y-8840674D02*
X3360539Y-8802579D01*
X3360539Y-8802579D02*
X3370063Y-8783531D01*
X3370063Y-8783531D02*
X3379586Y-8774008D01*
X3379586Y-8774008D02*
X3398634Y-8764484D01*
X3551015Y-8945436D02*
X3560539Y-8954960D01*
X3560539Y-8954960D02*
X3551015Y-8964484D01*
X3551015Y-8964484D02*
X3541491Y-8954960D01*
X3541491Y-8954960D02*
X3551015Y-8945436D01*
X3551015Y-8945436D02*
X3551015Y-8964484D01*
X3684348Y-8764484D02*
X3703396Y-8764484D01*
X3703396Y-8764484D02*
X3722444Y-8774008D01*
X3722444Y-8774008D02*
X3731967Y-8783531D01*
X3731967Y-8783531D02*
X3741491Y-8802579D01*
X3741491Y-8802579D02*
X3751015Y-8840674D01*
X3751015Y-8840674D02*
X3751015Y-8888293D01*
X3751015Y-8888293D02*
X3741491Y-8926389D01*
X3741491Y-8926389D02*
X3731967Y-8945436D01*
X3731967Y-8945436D02*
X3722444Y-8954960D01*
X3722444Y-8954960D02*
X3703396Y-8964484D01*
X3703396Y-8964484D02*
X3684348Y-8964484D01*
X3684348Y-8964484D02*
X3665301Y-8954960D01*
X3665301Y-8954960D02*
X3655777Y-8945436D01*
X3655777Y-8945436D02*
X3646253Y-8926389D01*
X3646253Y-8926389D02*
X3636729Y-8888293D01*
X3636729Y-8888293D02*
X3636729Y-8840674D01*
X3636729Y-8840674D02*
X3646253Y-8802579D01*
X3646253Y-8802579D02*
X3655777Y-8783531D01*
X3655777Y-8783531D02*
X3665301Y-8774008D01*
X3665301Y-8774008D02*
X3684348Y-8764484D01*
X3865301Y-8850198D02*
X3846253Y-8840674D01*
X3846253Y-8840674D02*
X3836729Y-8831150D01*
X3836729Y-8831150D02*
X3827206Y-8812103D01*
X3827206Y-8812103D02*
X3827206Y-8802579D01*
X3827206Y-8802579D02*
X3836729Y-8783531D01*
X3836729Y-8783531D02*
X3846253Y-8774008D01*
X3846253Y-8774008D02*
X3865301Y-8764484D01*
X3865301Y-8764484D02*
X3903396Y-8764484D01*
X3903396Y-8764484D02*
X3922444Y-8774008D01*
X3922444Y-8774008D02*
X3931967Y-8783531D01*
X3931967Y-8783531D02*
X3941491Y-8802579D01*
X3941491Y-8802579D02*
X3941491Y-8812103D01*
X3941491Y-8812103D02*
X3931967Y-8831150D01*
X3931967Y-8831150D02*
X3922444Y-8840674D01*
X3922444Y-8840674D02*
X3903396Y-8850198D01*
X3903396Y-8850198D02*
X3865301Y-8850198D01*
X3865301Y-8850198D02*
X3846253Y-8859722D01*
X3846253Y-8859722D02*
X3836729Y-8869246D01*
X3836729Y-8869246D02*
X3827206Y-8888293D01*
X3827206Y-8888293D02*
X3827206Y-8926389D01*
X3827206Y-8926389D02*
X3836729Y-8945436D01*
X3836729Y-8945436D02*
X3846253Y-8954960D01*
X3846253Y-8954960D02*
X3865301Y-8964484D01*
X3865301Y-8964484D02*
X3903396Y-8964484D01*
X3903396Y-8964484D02*
X3922444Y-8954960D01*
X3922444Y-8954960D02*
X3931967Y-8945436D01*
X3931967Y-8945436D02*
X3941491Y-8926389D01*
X3941491Y-8926389D02*
X3941491Y-8888293D01*
X3941491Y-8888293D02*
X3931967Y-8869246D01*
X3931967Y-8869246D02*
X3922444Y-8859722D01*
X3922444Y-8859722D02*
X3903396Y-8850198D01*
X4112920Y-8764484D02*
X4074825Y-8764484D01*
X4074825Y-8764484D02*
X4055777Y-8774008D01*
X4055777Y-8774008D02*
X4046253Y-8783531D01*
X4046253Y-8783531D02*
X4027206Y-8812103D01*
X4027206Y-8812103D02*
X4017682Y-8850198D01*
X4017682Y-8850198D02*
X4017682Y-8926389D01*
X4017682Y-8926389D02*
X4027206Y-8945436D01*
X4027206Y-8945436D02*
X4036729Y-8954960D01*
X4036729Y-8954960D02*
X4055777Y-8964484D01*
X4055777Y-8964484D02*
X4093872Y-8964484D01*
X4093872Y-8964484D02*
X4112920Y-8954960D01*
X4112920Y-8954960D02*
X4122444Y-8945436D01*
X4122444Y-8945436D02*
X4131967Y-8926389D01*
X4131967Y-8926389D02*
X4131967Y-8878770D01*
X4131967Y-8878770D02*
X4122444Y-8859722D01*
X4122444Y-8859722D02*
X4112920Y-8850198D01*
X4112920Y-8850198D02*
X4093872Y-8840674D01*
X4093872Y-8840674D02*
X4055777Y-8840674D01*
X4055777Y-8840674D02*
X4036729Y-8850198D01*
X4036729Y-8850198D02*
X4027206Y-8859722D01*
X4027206Y-8859722D02*
X4017682Y-8878770D01*
X4303396Y-8764484D02*
X4265301Y-8764484D01*
X4265301Y-8764484D02*
X4246253Y-8774008D01*
X4246253Y-8774008D02*
X4236729Y-8783531D01*
X4236729Y-8783531D02*
X4217682Y-8812103D01*
X4217682Y-8812103D02*
X4208158Y-8850198D01*
X4208158Y-8850198D02*
X4208158Y-8926389D01*
X4208158Y-8926389D02*
X4217682Y-8945436D01*
X4217682Y-8945436D02*
X4227206Y-8954960D01*
X4227206Y-8954960D02*
X4246253Y-8964484D01*
X4246253Y-8964484D02*
X4284349Y-8964484D01*
X4284349Y-8964484D02*
X4303396Y-8954960D01*
X4303396Y-8954960D02*
X4312920Y-8945436D01*
X4312920Y-8945436D02*
X4322444Y-8926389D01*
X4322444Y-8926389D02*
X4322444Y-8878770D01*
X4322444Y-8878770D02*
X4312920Y-8859722D01*
X4312920Y-8859722D02*
X4303396Y-8850198D01*
X4303396Y-8850198D02*
X4284349Y-8840674D01*
X4284349Y-8840674D02*
X4246253Y-8840674D01*
X4246253Y-8840674D02*
X4227206Y-8850198D01*
X4227206Y-8850198D02*
X4217682Y-8859722D01*
X4217682Y-8859722D02*
X4208158Y-8878770D01*
X4398634Y-8764484D02*
X4398634Y-8802579D01*
X4474825Y-8764484D02*
X4474825Y-8802579D01*
X4770063Y-9040674D02*
X4760539Y-9031150D01*
X4760539Y-9031150D02*
X4741491Y-9002579D01*
X4741491Y-9002579D02*
X4731968Y-8983531D01*
X4731968Y-8983531D02*
X4722444Y-8954960D01*
X4722444Y-8954960D02*
X4712920Y-8907341D01*
X4712920Y-8907341D02*
X4712920Y-8869246D01*
X4712920Y-8869246D02*
X4722444Y-8821627D01*
X4722444Y-8821627D02*
X4731968Y-8793055D01*
X4731968Y-8793055D02*
X4741491Y-8774008D01*
X4741491Y-8774008D02*
X4760539Y-8745436D01*
X4760539Y-8745436D02*
X4770063Y-8735912D01*
X4836730Y-8783531D02*
X4846253Y-8774008D01*
X4846253Y-8774008D02*
X4865301Y-8764484D01*
X4865301Y-8764484D02*
X4912920Y-8764484D01*
X4912920Y-8764484D02*
X4931968Y-8774008D01*
X4931968Y-8774008D02*
X4941491Y-8783531D01*
X4941491Y-8783531D02*
X4951015Y-8802579D01*
X4951015Y-8802579D02*
X4951015Y-8821627D01*
X4951015Y-8821627D02*
X4941491Y-8850198D01*
X4941491Y-8850198D02*
X4827206Y-8964484D01*
X4827206Y-8964484D02*
X4951015Y-8964484D01*
X5189111Y-8964484D02*
X5189111Y-8764484D01*
X5274825Y-8964484D02*
X5274825Y-8859722D01*
X5274825Y-8859722D02*
X5265301Y-8840674D01*
X5265301Y-8840674D02*
X5246253Y-8831150D01*
X5246253Y-8831150D02*
X5217682Y-8831150D01*
X5217682Y-8831150D02*
X5198634Y-8840674D01*
X5198634Y-8840674D02*
X5189111Y-8850198D01*
X5398634Y-8964484D02*
X5379587Y-8954960D01*
X5379587Y-8954960D02*
X5370063Y-8945436D01*
X5370063Y-8945436D02*
X5360539Y-8926389D01*
X5360539Y-8926389D02*
X5360539Y-8869246D01*
X5360539Y-8869246D02*
X5370063Y-8850198D01*
X5370063Y-8850198D02*
X5379587Y-8840674D01*
X5379587Y-8840674D02*
X5398634Y-8831150D01*
X5398634Y-8831150D02*
X5427206Y-8831150D01*
X5427206Y-8831150D02*
X5446253Y-8840674D01*
X5446253Y-8840674D02*
X5455777Y-8850198D01*
X5455777Y-8850198D02*
X5465301Y-8869246D01*
X5465301Y-8869246D02*
X5465301Y-8926389D01*
X5465301Y-8926389D02*
X5455777Y-8945436D01*
X5455777Y-8945436D02*
X5446253Y-8954960D01*
X5446253Y-8954960D02*
X5427206Y-8964484D01*
X5427206Y-8964484D02*
X5398634Y-8964484D01*
X5579587Y-8964484D02*
X5560539Y-8954960D01*
X5560539Y-8954960D02*
X5551015Y-8935912D01*
X5551015Y-8935912D02*
X5551015Y-8764484D01*
X5731968Y-8954960D02*
X5712920Y-8964484D01*
X5712920Y-8964484D02*
X5674825Y-8964484D01*
X5674825Y-8964484D02*
X5655777Y-8954960D01*
X5655777Y-8954960D02*
X5646253Y-8935912D01*
X5646253Y-8935912D02*
X5646253Y-8859722D01*
X5646253Y-8859722D02*
X5655777Y-8840674D01*
X5655777Y-8840674D02*
X5674825Y-8831150D01*
X5674825Y-8831150D02*
X5712920Y-8831150D01*
X5712920Y-8831150D02*
X5731968Y-8840674D01*
X5731968Y-8840674D02*
X5741491Y-8859722D01*
X5741491Y-8859722D02*
X5741491Y-8878770D01*
X5741491Y-8878770D02*
X5646253Y-8897817D01*
X5817682Y-8954960D02*
X5836730Y-8964484D01*
X5836730Y-8964484D02*
X5874825Y-8964484D01*
X5874825Y-8964484D02*
X5893872Y-8954960D01*
X5893872Y-8954960D02*
X5903396Y-8935912D01*
X5903396Y-8935912D02*
X5903396Y-8926389D01*
X5903396Y-8926389D02*
X5893872Y-8907341D01*
X5893872Y-8907341D02*
X5874825Y-8897817D01*
X5874825Y-8897817D02*
X5846253Y-8897817D01*
X5846253Y-8897817D02*
X5827206Y-8888293D01*
X5827206Y-8888293D02*
X5817682Y-8869246D01*
X5817682Y-8869246D02*
X5817682Y-8859722D01*
X5817682Y-8859722D02*
X5827206Y-8840674D01*
X5827206Y-8840674D02*
X5846253Y-8831150D01*
X5846253Y-8831150D02*
X5874825Y-8831150D01*
X5874825Y-8831150D02*
X5893872Y-8840674D01*
X5970063Y-9040674D02*
X5979587Y-9031150D01*
X5979587Y-9031150D02*
X5998634Y-9002579D01*
X5998634Y-9002579D02*
X6008158Y-8983531D01*
X6008158Y-8983531D02*
X6017682Y-8954960D01*
X6017682Y-8954960D02*
X6027206Y-8907341D01*
X6027206Y-8907341D02*
X6027206Y-8869246D01*
X6027206Y-8869246D02*
X6017682Y-8821627D01*
X6017682Y-8821627D02*
X6008158Y-8793055D01*
X6008158Y-8793055D02*
X5998634Y-8774008D01*
X5998634Y-8774008D02*
X5979587Y-8745436D01*
X5979587Y-8745436D02*
X5970063Y-8735912D01*
X6331968Y-9040674D02*
X6322444Y-9031150D01*
X6322444Y-9031150D02*
X6303396Y-9002579D01*
X6303396Y-9002579D02*
X6293872Y-8983531D01*
X6293872Y-8983531D02*
X6284349Y-8954960D01*
X6284349Y-8954960D02*
X6274825Y-8907341D01*
X6274825Y-8907341D02*
X6274825Y-8869246D01*
X6274825Y-8869246D02*
X6284349Y-8821627D01*
X6284349Y-8821627D02*
X6293872Y-8793055D01*
X6293872Y-8793055D02*
X6303396Y-8774008D01*
X6303396Y-8774008D02*
X6322444Y-8745436D01*
X6322444Y-8745436D02*
X6331968Y-8735912D01*
X6408158Y-8831150D02*
X6408158Y-8964484D01*
X6408158Y-8850198D02*
X6417682Y-8840674D01*
X6417682Y-8840674D02*
X6436730Y-8831150D01*
X6436730Y-8831150D02*
X6465301Y-8831150D01*
X6465301Y-8831150D02*
X6484349Y-8840674D01*
X6484349Y-8840674D02*
X6493872Y-8859722D01*
X6493872Y-8859722D02*
X6493872Y-8964484D01*
X6617682Y-8964484D02*
X6598634Y-8954960D01*
X6598634Y-8954960D02*
X6589111Y-8945436D01*
X6589111Y-8945436D02*
X6579587Y-8926389D01*
X6579587Y-8926389D02*
X6579587Y-8869246D01*
X6579587Y-8869246D02*
X6589111Y-8850198D01*
X6589111Y-8850198D02*
X6598634Y-8840674D01*
X6598634Y-8840674D02*
X6617682Y-8831150D01*
X6617682Y-8831150D02*
X6646253Y-8831150D01*
X6646253Y-8831150D02*
X6665301Y-8840674D01*
X6665301Y-8840674D02*
X6674825Y-8850198D01*
X6674825Y-8850198D02*
X6684349Y-8869246D01*
X6684349Y-8869246D02*
X6684349Y-8926389D01*
X6684349Y-8926389D02*
X6674825Y-8945436D01*
X6674825Y-8945436D02*
X6665301Y-8954960D01*
X6665301Y-8954960D02*
X6646253Y-8964484D01*
X6646253Y-8964484D02*
X6617682Y-8964484D01*
X6741492Y-8831150D02*
X6817682Y-8831150D01*
X6770063Y-8764484D02*
X6770063Y-8935912D01*
X6770063Y-8935912D02*
X6779587Y-8954960D01*
X6779587Y-8954960D02*
X6798634Y-8964484D01*
X6798634Y-8964484D02*
X6817682Y-8964484D01*
X7036730Y-8831150D02*
X7036730Y-9031150D01*
X7036730Y-8840674D02*
X7055777Y-8831150D01*
X7055777Y-8831150D02*
X7093873Y-8831150D01*
X7093873Y-8831150D02*
X7112920Y-8840674D01*
X7112920Y-8840674D02*
X7122444Y-8850198D01*
X7122444Y-8850198D02*
X7131968Y-8869246D01*
X7131968Y-8869246D02*
X7131968Y-8926389D01*
X7131968Y-8926389D02*
X7122444Y-8945436D01*
X7122444Y-8945436D02*
X7112920Y-8954960D01*
X7112920Y-8954960D02*
X7093873Y-8964484D01*
X7093873Y-8964484D02*
X7055777Y-8964484D01*
X7055777Y-8964484D02*
X7036730Y-8954960D01*
X7246253Y-8964484D02*
X7227206Y-8954960D01*
X7227206Y-8954960D02*
X7217682Y-8935912D01*
X7217682Y-8935912D02*
X7217682Y-8764484D01*
X7408158Y-8964484D02*
X7408158Y-8859722D01*
X7408158Y-8859722D02*
X7398634Y-8840674D01*
X7398634Y-8840674D02*
X7379587Y-8831150D01*
X7379587Y-8831150D02*
X7341492Y-8831150D01*
X7341492Y-8831150D02*
X7322444Y-8840674D01*
X7408158Y-8954960D02*
X7389111Y-8964484D01*
X7389111Y-8964484D02*
X7341492Y-8964484D01*
X7341492Y-8964484D02*
X7322444Y-8954960D01*
X7322444Y-8954960D02*
X7312920Y-8935912D01*
X7312920Y-8935912D02*
X7312920Y-8916865D01*
X7312920Y-8916865D02*
X7322444Y-8897817D01*
X7322444Y-8897817D02*
X7341492Y-8888293D01*
X7341492Y-8888293D02*
X7389111Y-8888293D01*
X7389111Y-8888293D02*
X7408158Y-8878770D01*
X7474825Y-8831150D02*
X7551015Y-8831150D01*
X7503396Y-8764484D02*
X7503396Y-8935912D01*
X7503396Y-8935912D02*
X7512920Y-8954960D01*
X7512920Y-8954960D02*
X7531968Y-8964484D01*
X7531968Y-8964484D02*
X7551015Y-8964484D01*
X7693873Y-8954960D02*
X7674825Y-8964484D01*
X7674825Y-8964484D02*
X7636730Y-8964484D01*
X7636730Y-8964484D02*
X7617682Y-8954960D01*
X7617682Y-8954960D02*
X7608158Y-8935912D01*
X7608158Y-8935912D02*
X7608158Y-8859722D01*
X7608158Y-8859722D02*
X7617682Y-8840674D01*
X7617682Y-8840674D02*
X7636730Y-8831150D01*
X7636730Y-8831150D02*
X7674825Y-8831150D01*
X7674825Y-8831150D02*
X7693873Y-8840674D01*
X7693873Y-8840674D02*
X7703396Y-8859722D01*
X7703396Y-8859722D02*
X7703396Y-8878770D01*
X7703396Y-8878770D02*
X7608158Y-8897817D01*
X7874825Y-8964484D02*
X7874825Y-8764484D01*
X7874825Y-8954960D02*
X7855777Y-8964484D01*
X7855777Y-8964484D02*
X7817682Y-8964484D01*
X7817682Y-8964484D02*
X7798634Y-8954960D01*
X7798634Y-8954960D02*
X7789111Y-8945436D01*
X7789111Y-8945436D02*
X7779587Y-8926389D01*
X7779587Y-8926389D02*
X7779587Y-8869246D01*
X7779587Y-8869246D02*
X7789111Y-8850198D01*
X7789111Y-8850198D02*
X7798634Y-8840674D01*
X7798634Y-8840674D02*
X7817682Y-8831150D01*
X7817682Y-8831150D02*
X7855777Y-8831150D01*
X7855777Y-8831150D02*
X7874825Y-8840674D01*
X7951015Y-9040674D02*
X7960539Y-9031150D01*
X7960539Y-9031150D02*
X7979587Y-9002579D01*
X7979587Y-9002579D02*
X7989111Y-8983531D01*
X7989111Y-8983531D02*
X7998634Y-8954960D01*
X7998634Y-8954960D02*
X8008158Y-8907341D01*
X8008158Y-8907341D02*
X8008158Y-8869246D01*
X8008158Y-8869246D02*
X7998634Y-8821627D01*
X7998634Y-8821627D02*
X7989111Y-8793055D01*
X7989111Y-8793055D02*
X7979587Y-8774008D01*
X7979587Y-8774008D02*
X7960539Y-8745436D01*
X7960539Y-8745436D02*
X7951015Y-8735912D01*
M02*
