G04 #@! TF.GenerationSoftware,KiCad,Pcbnew,9.0.7*
G04 #@! TF.CreationDate,2026-03-07T21:35:16-05:00*
G04 #@! TF.ProjectId,Battery_Charger_Balancer_2,42617474-6572-4795-9f43-686172676572,rev?*
G04 #@! TF.SameCoordinates,Original*
G04 #@! TF.FileFunction,Paste,Bot*
G04 #@! TF.FilePolarity,Positive*
%FSLAX46Y46*%
G04 Gerber Fmt 4.6, Leading zero omitted, Abs format (unit mm)*
G04 Created by KiCad (PCBNEW 9.0.7) date 2026-03-07 21:35:16*
%MOMM*%
%LPD*%
G01*
G04 APERTURE LIST*
G04 Aperture macros list*
%AMRoundRect*
0 Rectangle with rounded corners*
0 $1 Rounding radius*
0 $2 $3 $4 $5 $6 $7 $8 $9 X,Y pos of 4 corners*
0 Add a 4 corners polygon primitive as box body*
4,1,4,$2,$3,$4,$5,$6,$7,$8,$9,$2,$3,0*
0 Add four circle primitives for the rounded corners*
1,1,$1+$1,$2,$3*
1,1,$1+$1,$4,$5*
1,1,$1+$1,$6,$7*
1,1,$1+$1,$8,$9*
0 Add four rect primitives between the rounded corners*
20,1,$1+$1,$2,$3,$4,$5,0*
20,1,$1+$1,$4,$5,$6,$7,0*
20,1,$1+$1,$6,$7,$8,$9,0*
20,1,$1+$1,$8,$9,$2,$3,0*%
G04 Aperture macros list end*
%ADD10RoundRect,0.237500X-0.250000X-0.237500X0.250000X-0.237500X0.250000X0.237500X-0.250000X0.237500X0*%
%ADD11RoundRect,0.237500X0.250000X0.237500X-0.250000X0.237500X-0.250000X-0.237500X0.250000X-0.237500X0*%
%ADD12RoundRect,0.237500X-0.300000X-0.237500X0.300000X-0.237500X0.300000X0.237500X-0.300000X0.237500X0*%
%ADD13RoundRect,0.150000X0.150000X-0.512500X0.150000X0.512500X-0.150000X0.512500X-0.150000X-0.512500X0*%
%ADD14RoundRect,0.237500X0.300000X0.237500X-0.300000X0.237500X-0.300000X-0.237500X0.300000X-0.237500X0*%
%ADD15RoundRect,0.237500X0.237500X-0.250000X0.237500X0.250000X-0.237500X0.250000X-0.237500X-0.250000X0*%
%ADD16RoundRect,0.237500X-0.237500X0.250000X-0.237500X-0.250000X0.237500X-0.250000X0.237500X0.250000X0*%
%ADD17RoundRect,0.150000X-0.650000X-0.150000X0.650000X-0.150000X0.650000X0.150000X-0.650000X0.150000X0*%
%ADD18RoundRect,0.237500X0.237500X-0.300000X0.237500X0.300000X-0.237500X0.300000X-0.237500X-0.300000X0*%
G04 APERTURE END LIST*
D10*
X39450000Y-64350000D03*
X41275000Y-64350000D03*
X39450000Y-69300000D03*
X41275000Y-69300000D03*
D11*
X25150000Y-27250000D03*
X23325000Y-27250000D03*
D12*
X33075000Y-43750000D03*
X34800000Y-43750000D03*
D13*
X39100000Y-21787500D03*
X37200000Y-21787500D03*
X38150000Y-19512500D03*
D12*
X30987500Y-17000000D03*
X32712500Y-17000000D03*
D14*
X29025000Y-17000000D03*
X27300000Y-17000000D03*
D10*
X39450000Y-66000000D03*
X41275000Y-66000000D03*
D11*
X19562500Y-31900000D03*
X17737500Y-31900000D03*
D15*
X15500000Y-15012500D03*
X15500000Y-13187500D03*
X37450000Y-56212500D03*
X37450000Y-54387500D03*
D16*
X25000000Y-18987500D03*
X25000000Y-20812500D03*
D15*
X35800000Y-56200000D03*
X35800000Y-54375000D03*
X22800000Y-15012500D03*
X22800000Y-13187500D03*
D11*
X19562500Y-30050000D03*
X17737500Y-30050000D03*
D12*
X32975000Y-47450000D03*
X34700000Y-47450000D03*
D10*
X39450000Y-67650000D03*
X41275000Y-67650000D03*
D17*
X37650000Y-15800000D03*
X37650000Y-14850000D03*
X37650000Y-13900000D03*
X39950000Y-13900000D03*
X39950000Y-15800000D03*
D11*
X38400000Y-43750000D03*
X36575000Y-43750000D03*
X38300000Y-47450000D03*
X36475000Y-47450000D03*
D12*
X38137500Y-17700000D03*
X39862500Y-17700000D03*
D18*
X42050000Y-15762500D03*
X42050000Y-14037500D03*
M02*
