G04 #@! TF.GenerationSoftware,KiCad,Pcbnew,9.0.7*
G04 #@! TF.CreationDate,2026-03-07T21:35:16-05:00*
G04 #@! TF.ProjectId,Battery_Charger_Balancer_2,42617474-6572-4795-9f43-686172676572,rev?*
G04 #@! TF.SameCoordinates,Original*
G04 #@! TF.FileFunction,Soldermask,Bot*
G04 #@! TF.FilePolarity,Negative*
%FSLAX46Y46*%
G04 Gerber Fmt 4.6, Leading zero omitted, Abs format (unit mm)*
G04 Created by KiCad (PCBNEW 9.0.7) date 2026-03-07 21:35:16*
%MOMM*%
%LPD*%
G01*
G04 APERTURE LIST*
G04 Aperture macros list*
%AMRoundRect*
0 Rectangle with rounded corners*
0 $1 Rounding radius*
0 $2 $3 $4 $5 $6 $7 $8 $9 X,Y pos of 4 corners*
0 Add a 4 corners polygon primitive as box body*
4,1,4,$2,$3,$4,$5,$6,$7,$8,$9,$2,$3,0*
0 Add four circle primitives for the rounded corners*
1,1,$1+$1,$2,$3*
1,1,$1+$1,$4,$5*
1,1,$1+$1,$6,$7*
1,1,$1+$1,$8,$9*
0 Add four rect primitives between the rounded corners*
20,1,$1+$1,$2,$3,$4,$5,0*
20,1,$1+$1,$4,$5,$6,$7,0*
20,1,$1+$1,$6,$7,$8,$9,0*
20,1,$1+$1,$8,$9,$2,$3,0*%
G04 Aperture macros list end*
%ADD10C,0.100000*%
%ADD11C,2.200000*%
%ADD12RoundRect,0.250001X0.799999X-0.799999X0.799999X0.799999X-0.799999X0.799999X-0.799999X-0.799999X0*%
%ADD13C,2.100000*%
%ADD14C,0.700000*%
%ADD15R,1.700000X1.700000*%
%ADD16C,1.700000*%
%ADD17C,1.200000*%
%ADD18RoundRect,0.250000X-0.600000X-0.750000X0.600000X-0.750000X0.600000X0.750000X-0.600000X0.750000X0*%
%ADD19O,1.700000X2.000000*%
%ADD20C,1.346200*%
%ADD21RoundRect,0.250000X-0.725000X0.600000X-0.725000X-0.600000X0.725000X-0.600000X0.725000X0.600000X0*%
%ADD22O,1.950000X1.700000*%
%ADD23RoundRect,0.237500X-0.250000X-0.237500X0.250000X-0.237500X0.250000X0.237500X-0.250000X0.237500X0*%
%ADD24RoundRect,0.237500X0.250000X0.237500X-0.250000X0.237500X-0.250000X-0.237500X0.250000X-0.237500X0*%
%ADD25RoundRect,0.237500X-0.300000X-0.237500X0.300000X-0.237500X0.300000X0.237500X-0.300000X0.237500X0*%
%ADD26RoundRect,0.150000X0.150000X-0.512500X0.150000X0.512500X-0.150000X0.512500X-0.150000X-0.512500X0*%
%ADD27RoundRect,0.237500X0.300000X0.237500X-0.300000X0.237500X-0.300000X-0.237500X0.300000X-0.237500X0*%
%ADD28RoundRect,0.237500X0.387500X0.237500X-0.387500X0.237500X-0.387500X-0.237500X0.387500X-0.237500X0*%
%ADD29RoundRect,0.237500X0.237500X-0.387500X0.237500X0.387500X-0.237500X0.387500X-0.237500X-0.387500X0*%
%ADD30RoundRect,0.237500X0.237500X-0.250000X0.237500X0.250000X-0.237500X0.250000X-0.237500X-0.250000X0*%
%ADD31RoundRect,0.237500X-0.237500X0.387500X-0.237500X-0.387500X0.237500X-0.387500X0.237500X0.387500X0*%
%ADD32RoundRect,0.237500X-0.237500X0.250000X-0.237500X-0.250000X0.237500X-0.250000X0.237500X0.250000X0*%
%ADD33RoundRect,0.150000X-0.650000X-0.150000X0.650000X-0.150000X0.650000X0.150000X-0.650000X0.150000X0*%
%ADD34RoundRect,0.237500X0.237500X-0.300000X0.237500X0.300000X-0.237500X0.300000X-0.237500X-0.300000X0*%
G04 APERTURE END LIST*
D10*
X37087500Y-65725000D02*
X36787500Y-65725000D01*
X36787500Y-66275000D01*
X37087500Y-66275000D01*
X37087500Y-65725000D01*
G36*
X37087500Y-65725000D02*
G01*
X36787500Y-65725000D01*
X36787500Y-66275000D01*
X37087500Y-66275000D01*
X37087500Y-65725000D01*
G37*
X37087500Y-67375000D02*
X36787500Y-67375000D01*
X36787500Y-67925000D01*
X37087500Y-67925000D01*
X37087500Y-67375000D01*
G36*
X37087500Y-67375000D02*
G01*
X36787500Y-67375000D01*
X36787500Y-67925000D01*
X37087500Y-67925000D01*
X37087500Y-67375000D01*
G37*
X17475000Y-14250000D02*
X16925000Y-14250000D01*
X16925000Y-13950000D01*
X17475000Y-13950000D01*
X17475000Y-14250000D01*
G36*
X17475000Y-14250000D02*
G01*
X16925000Y-14250000D01*
X16925000Y-13950000D01*
X17475000Y-13950000D01*
X17475000Y-14250000D01*
G37*
X37087500Y-64075000D02*
X36787500Y-64075000D01*
X36787500Y-64625000D01*
X37087500Y-64625000D01*
X37087500Y-64075000D01*
G36*
X37087500Y-64075000D02*
G01*
X36787500Y-64075000D01*
X36787500Y-64625000D01*
X37087500Y-64625000D01*
X37087500Y-64075000D01*
G37*
X21425000Y-14250000D02*
X20875000Y-14250000D01*
X20875000Y-13950000D01*
X21425000Y-13950000D01*
X21425000Y-14250000D01*
G36*
X21425000Y-14250000D02*
G01*
X20875000Y-14250000D01*
X20875000Y-13950000D01*
X21425000Y-13950000D01*
X21425000Y-14250000D01*
G37*
X23025000Y-19750000D02*
X23575000Y-19750000D01*
X23575000Y-20050000D01*
X23025000Y-20050000D01*
X23025000Y-19750000D01*
G36*
X23025000Y-19750000D02*
G01*
X23575000Y-19750000D01*
X23575000Y-20050000D01*
X23025000Y-20050000D01*
X23025000Y-19750000D01*
G37*
X37087500Y-69025000D02*
X36787500Y-69025000D01*
X36787500Y-69575000D01*
X37087500Y-69575000D01*
X37087500Y-69025000D01*
G36*
X37087500Y-69025000D02*
G01*
X36787500Y-69025000D01*
X36787500Y-69575000D01*
X37087500Y-69575000D01*
X37087500Y-69025000D01*
G37*
D11*
X15000000Y-67050000D03*
X44750000Y-32650000D03*
D12*
X43167500Y-60150000D03*
D13*
X43167500Y-55150000D03*
D12*
X43167500Y-71850000D03*
D13*
X43167500Y-66850000D03*
D14*
X32940000Y-18305000D03*
X27160000Y-18305000D03*
D15*
X21710000Y-31875000D03*
D16*
X21710000Y-29335000D03*
X24250000Y-31875000D03*
X24250000Y-29335000D03*
X26790000Y-31875000D03*
X26790000Y-29335000D03*
D17*
X14250000Y-74300000D03*
D18*
X15850000Y-72300000D03*
D19*
X18350000Y-72300000D03*
D20*
X46254287Y-21399999D03*
X46254287Y-15100001D03*
D17*
X13700000Y-31600000D03*
D21*
X15700000Y-33200000D03*
D22*
X15700000Y-35700000D03*
X15700000Y-38200000D03*
X15700000Y-40700000D03*
X15700000Y-43200000D03*
X15700000Y-45700000D03*
D23*
X39450000Y-64350000D03*
X41275000Y-64350000D03*
X39450000Y-69300000D03*
X41275000Y-69300000D03*
D24*
X25150000Y-27250000D03*
X23325000Y-27250000D03*
D25*
X33075000Y-43750000D03*
X34800000Y-43750000D03*
D26*
X39100000Y-21787500D03*
X37200000Y-21787500D03*
X38150000Y-19512500D03*
D25*
X30987500Y-17000000D03*
X32712500Y-17000000D03*
D27*
X29025000Y-17000000D03*
X27300000Y-17000000D03*
D28*
X37712500Y-66000000D03*
X36162500Y-66000000D03*
X37712500Y-67650000D03*
X36162500Y-67650000D03*
D29*
X17200000Y-14875000D03*
X17200000Y-13325000D03*
D28*
X37712500Y-64350000D03*
X36162500Y-64350000D03*
D23*
X39450000Y-66000000D03*
X41275000Y-66000000D03*
D24*
X19562500Y-31900000D03*
X17737500Y-31900000D03*
D30*
X15500000Y-15012500D03*
X15500000Y-13187500D03*
D29*
X21150000Y-14875000D03*
X21150000Y-13325000D03*
D31*
X23300000Y-19125000D03*
X23300000Y-20675000D03*
D30*
X37450000Y-56212500D03*
X37450000Y-54387500D03*
D32*
X25000000Y-18987500D03*
X25000000Y-20812500D03*
D30*
X35800000Y-56200000D03*
X35800000Y-54375000D03*
X22800000Y-15012500D03*
X22800000Y-13187500D03*
D24*
X19562500Y-30050000D03*
X17737500Y-30050000D03*
D25*
X32975000Y-47450000D03*
X34700000Y-47450000D03*
D23*
X39450000Y-67650000D03*
X41275000Y-67650000D03*
D33*
X37650000Y-15800000D03*
X37650000Y-14850000D03*
X37650000Y-13900000D03*
X39950000Y-13900000D03*
X39950000Y-15800000D03*
D24*
X38400000Y-43750000D03*
X36575000Y-43750000D03*
D28*
X37712500Y-69300000D03*
X36162500Y-69300000D03*
D24*
X38300000Y-47450000D03*
X36475000Y-47450000D03*
D25*
X38137500Y-17700000D03*
X39862500Y-17700000D03*
D34*
X42050000Y-15762500D03*
X42050000Y-14037500D03*
M02*
